<?xml version="1.0" encoding="UTF-8" standalone="no"?>
<!DOCTYPE svg PUBLIC "-//W3C//DTD SVG 1.1//EN"
 "http://www.w3.org/Graphics/SVG/1.1/DTD/svg11.dtd">
<!-- Generated by graphviz version 2.40.1 (20161225.0304)
 -->
<!-- Title: G Pages: 1 -->
<svg width="1295pt" height="346pt"
 viewBox="0.00 0.00 1295.00 346.00" xmlns="http://www.w3.org/2000/svg" xmlns:xlink="http://www.w3.org/1999/xlink">
<g id="graph0" class="graph" transform="scale(1 1) rotate(0) translate(4 342)">
<title>G</title>
<polygon fill="#ffffff" stroke="transparent" points="-4,4 -4,-342 1291,-342 1291,4 -4,4"/>
<!-- A0 -->
<g id="node1" class="node">
<title>A0</title>
<polygon fill="none" stroke="#000000" points="0,-220 0,-252 288,-252 288,-220 0,-220"/>
<text text-anchor="start" x="130.667" y="-233" font-family="Helvetica,sans-Serif" font-size="10.00" fill="#000000">Curso</text>
<polygon fill="none" stroke="#000000" points="0,-188 0,-220 288,-220 288,-188 0,-188"/>
<text text-anchor="start" x="111.496" y="-201" font-family="Helvetica,sans-Serif" font-size="10.00" fill="#000000">&#45;nombre:Texto</text>
<polygon fill="none" stroke="#000000" points="0,0 0,-188 288,-188 288,0 0,0"/>
<text text-anchor="start" x="82.186" y="-169" font-family="Helvetica,sans-Serif" font-size="10.00" fill="#000000">+constructor(nombre:Texto)</text>
<text text-anchor="start" x="48.274" y="-157" font-family="Helvetica,sans-Serif" font-size="10.00" fill="#000000">+agregarEstudiante(Estudiante:Estudiante)</text>
<text text-anchor="start" x="12.156" y="-145" font-family="Helvetica,sans-Serif" font-size="10.00" fill="#000000">+obtenerEstudiante(numeroIdentificacion:Texto):Estudiante</text>
<text text-anchor="start" x="77.728" y="-133" font-family="Helvetica,sans-Serif" font-size="10.00" fill="#000000">+getEstudiantes():Estudiante*</text>
<text text-anchor="start" x="55.778" y="-121" font-family="Helvetica,sans-Serif" font-size="10.00" fill="#000000">+obtenerListadoAlfabetico():Estudiante*</text>
<text text-anchor="start" x="44.9385" y="-109" font-family="Helvetica,sans-Serif" font-size="10.00" fill="#000000">+obtenerListadoEdadDescente():Estudiante*</text>
<text text-anchor="start" x="46.6085" y="-97" font-family="Helvetica,sans-Serif" font-size="10.00" fill="#000000">+obtenerListadoMenoresEdad():Estudiante*</text>
<text text-anchor="start" x="48.7185" y="-85" font-family="Helvetica,sans-Serif" font-size="10.00" fill="#000000">&#45;valiarNumeroIdentificacionExiste():Lógico</text>
<text text-anchor="start" x="63.2945" y="-73" font-family="Helvetica,sans-Serif" font-size="10.00" fill="#000000">+programarClase(fechaClase:fecha)</text>
<text text-anchor="start" x="88.9995" y="-61" font-family="Helvetica,sans-Serif" font-size="10.00" fill="#000000">getClases():ClaseCurso*</text>
<text text-anchor="start" x="28.285" y="-49" font-family="Helvetica,sans-Serif" font-size="10.00" fill="#000000">+getAsistentes(claseCurso:ClaseCurso):Estudiante*</text>
<text text-anchor="start" x="30.5045" y="-37" font-family="Helvetica,sans-Serif" font-size="10.00" fill="#000000">+getAusentes(claseCurso:ClaseCurso):Estudiante*</text>
<text text-anchor="start" x="9.683" y="-25" font-family="Helvetica,sans-Serif" font-size="10.00" fill="#000000">+calcularPorcentajeAsistencia(claseCurso:ClaseCurso):Real</text>
<text text-anchor="start" x="9.655" y="-13" font-family="Helvetica,sans-Serif" font-size="10.00" fill="#000000">+calcularAusenciasEstudiante(estudiante:Estudiante):Entero</text>
</g>
<!-- A1 -->
<g id="node2" class="node">
<title>A1</title>
<polygon fill="none" stroke="#000000" points="338,-306 338,-338 870,-338 870,-306 338,-306"/>
<text text-anchor="start" x="580.3795" y="-319" font-family="Helvetica,sans-Serif" font-size="10.00" fill="#000000">Estudiante</text>
<polygon fill="none" stroke="#000000" points="338,-214 338,-306 870,-306 870,-214 338,-214"/>
<text text-anchor="start" x="568.996" y="-287" font-family="Helvetica,sans-Serif" font-size="10.00" fill="#000000">&#45;nombres:Texto</text>
<text text-anchor="start" x="568.717" y="-275" font-family="Helvetica,sans-Serif" font-size="10.00" fill="#000000">&#45;apellidos:Texto</text>
<text text-anchor="start" x="542.322" y="-263" font-family="Helvetica,sans-Serif" font-size="10.00" fill="#000000">&#45;numeroIdentificacion:Texto</text>
<text text-anchor="start" x="574.2755" y="-251" font-family="Helvetica,sans-Serif" font-size="10.00" fill="#000000">&#45;correo:Texto</text>
<text text-anchor="start" x="570.657" y="-239" font-family="Helvetica,sans-Serif" font-size="10.00" fill="#000000">&#45;telefono:Texto</text>
<text text-anchor="start" x="575.101" y="-227" font-family="Helvetica,sans-Serif" font-size="10.00" fill="#000000">&#45;edad:Entero</text>
<polygon fill="none" stroke="#000000" points="338,-74 338,-214 870,-214 870,-74 338,-74"/>
<text text-anchor="start" x="347.965" y="-195" font-family="Helvetica,sans-Serif" font-size="10.00" fill="#000000">+constructor(nombres:Texto,apellidos:Texto,numeroIdentificacion:Texto, correo:Texto, telefono:Texto, edad:Entero)</text>
<text text-anchor="start" x="558.023" y="-183" font-family="Helvetica,sans-Serif" font-size="10.00" fill="#000000">+geNombres():Texto</text>
<text text-anchor="start" x="556.6295" y="-171" font-family="Helvetica,sans-Serif" font-size="10.00" fill="#000000">+getApellidos():Texto</text>
<text text-anchor="start" x="529.9595" y="-159" font-family="Helvetica,sans-Serif" font-size="10.00" fill="#000000">+getNumeroIdentificacion():Texto</text>
<text text-anchor="start" x="561.6335" y="-147" font-family="Helvetica,sans-Serif" font-size="10.00" fill="#000000">+getCorreo():Texto</text>
<text text-anchor="start" x="557.4595" y="-135" font-family="Helvetica,sans-Serif" font-size="10.00" fill="#000000">+getTelefono():Texto</text>
<text text-anchor="start" x="561.624" y="-123" font-family="Helvetica,sans-Serif" font-size="10.00" fill="#000000">+getEdad(): Entero</text>
<text text-anchor="start" x="506.076" y="-111" font-family="Helvetica,sans-Serif" font-size="10.00" fill="#000000">+asignarAsistencia(claseCurso:ClaseCurso)</text>
<text text-anchor="start" x="539.406" y="-99" font-family="Helvetica,sans-Serif" font-size="10.00" fill="#000000">+getAsistencias():Asistencia*</text>
<text text-anchor="start" x="500.5225" y="-87" font-family="Helvetica,sans-Serif" font-size="10.00" fill="#000000">+asistioClase(claseCurso:ClaseCurso):Lógico</text>
</g>
<!-- A0&#45;&gt;A1 -->
<g id="edge1" class="edge">
<title>A0&#45;&gt;A1</title>
<path fill="none" stroke="#000000" d="M300.3546,-153.1921C309.2981,-154.7475 318.4077,-156.3318 327.6208,-157.9341"/>
<polygon fill="none" stroke="#000000" points="300.1073,-153.1492 293.5106,-156.0619 288.2848,-151.093 294.8814,-148.1802 300.1073,-153.1492"/>
<polygon fill="#000000" stroke="#000000" points="337.6558,-159.6793 327.0326,-162.3992 332.7297,-158.8225 327.8037,-157.9658 327.8037,-157.9658 327.8037,-157.9658 332.7297,-158.8225 328.5748,-153.5323 337.6558,-159.6793 337.6558,-159.6793"/>
<text text-anchor="middle" x="318.3495" y="-161.9009" font-family="Helvetica,sans-Serif" font-size="10.00" fill="#000000">*</text>
<text text-anchor="middle" x="307.5911" y="-142.8714" font-family="Helvetica,sans-Serif" font-size="10.00" fill="#000000">1</text>
</g>
<!-- A2 -->
<g id="node3" class="node">
<title>A2</title>
<polygon fill="none" stroke="#000000" points="1183,-78 1183,-122 1287,-122 1287,-78 1183,-78"/>
<text text-anchor="start" x="1204.7105" y="-103" font-family="Helvetica,sans-Serif" font-size="10.00" fill="#000000">&lt;&lt;Registro&gt;&gt;</text>
<text text-anchor="start" x="1208.889" y="-91" font-family="Helvetica,sans-Serif" font-size="10.00" fill="#000000">ClaseCurso</text>
<polygon fill="none" stroke="#000000" points="1183,-46 1183,-78 1287,-78 1287,-46 1183,-46"/>
<text text-anchor="start" x="1193.047" y="-59" font-family="Helvetica,sans-Serif" font-size="10.00" fill="#000000">&#45;fechaClase:Fecha</text>
<polygon fill="none" stroke="#000000" points="1183,-14 1183,-46 1287,-46 1287,-14 1183,-14"/>
<text text-anchor="start" x="1192.6275" y="-27" font-family="Helvetica,sans-Serif" font-size="10.00" fill="#000000">+getFecha():Fecha</text>
</g>
<!-- A0&#45;&gt;A2 -->
<g id="edge2" class="edge">
<title>A0&#45;&gt;A2</title>
<path fill="none" stroke="#000000" d="M299.9567,-72.5003C312.7187,-69.4913 325.5092,-66.9175 338,-65 648.2213,-17.3774 1025.9326,-46.5967 1172.6023,-61.1844"/>
<polygon fill="none" stroke="#000000" points="299.9063,-72.5126 295.0357,-77.8303 288.2538,-75.3797 293.1243,-70.062 299.9063,-72.5126"/>
<polygon fill="#000000" stroke="#000000" points="1182.7592,-62.2081 1172.3582,-65.6825 1177.7844,-61.7067 1172.8096,-61.2052 1172.8096,-61.2052 1172.8096,-61.2052 1177.7844,-61.7067 1173.2609,-56.7279 1182.7592,-62.2081 1182.7592,-62.2081"/>
<text text-anchor="middle" x="1163.8767" y="-65.8001" font-family="Helvetica,sans-Serif" font-size="10.00" fill="#000000">*</text>
<text text-anchor="middle" x="303.8356" y="-59.8414" font-family="Helvetica,sans-Serif" font-size="10.00" fill="#000000">1</text>
</g>
<!-- A3 -->
<g id="node4" class="node">
<title>A3</title>
<polygon fill="none" stroke="#000000" points="920.5,-205 920.5,-249 1133.5,-249 1133.5,-205 920.5,-205"/>
<text text-anchor="start" x="996.7105" y="-230" font-family="Helvetica,sans-Serif" font-size="10.00" fill="#000000">&lt;&lt;Registro&gt;&gt;</text>
<text text-anchor="start" x="1004.2185" y="-218" font-family="Helvetica,sans-Serif" font-size="10.00" fill="#000000">Asistencia</text>
<polygon fill="none" stroke="#000000" points="920.5,-185 920.5,-205 1133.5,-205 1133.5,-185 920.5,-185"/>
<polygon fill="none" stroke="#000000" points="920.5,-141 920.5,-185 1133.5,-185 1133.5,-141 920.5,-141"/>
<text text-anchor="start" x="930.1825" y="-166" font-family="Helvetica,sans-Serif" font-size="10.00" fill="#000000">+constructor(tipoAsistencia:TipoAsistenicia)</text>
<text text-anchor="start" x="949.2145" y="-154" font-family="Helvetica,sans-Serif" font-size="10.00" fill="#000000">getTipoAsistencia():TipoAsistenicia</text>
</g>
<!-- A1&#45;&gt;A3 -->
<g id="edge3" class="edge">
<title>A1&#45;&gt;A3</title>
<path fill="none" stroke="#000000" d="M870.077,-199.0726C883.7504,-198.7166 897.0946,-198.3691 909.8581,-198.0368"/>
<polygon fill="#000000" stroke="#000000" points="919.9648,-197.7737 910.0854,-202.5325 914.9665,-197.9039 909.9682,-198.0341 909.9682,-198.0341 909.9682,-198.0341 914.9665,-197.9039 909.851,-193.5356 919.9648,-197.7737 919.9648,-197.7737"/>
<text text-anchor="middle" x="902.0648" y="-203.695" font-family="Helvetica,sans-Serif" font-size="10.00" fill="#000000">*</text>
</g>
<!-- A3&#45;&gt;A2 -->
<g id="edge4" class="edge">
<title>A3&#45;&gt;A2</title>
<path fill="none" stroke="#000000" d="M1115.2251,-140.9564C1135.1272,-128.8338 1155.8015,-116.2408 1174.2585,-104.9984"/>
<polygon fill="#000000" stroke="#000000" points="1182.8489,-99.7659 1176.6495,-108.8112 1178.5787,-102.3669 1174.3085,-104.968 1174.3085,-104.968 1174.3085,-104.968 1178.5787,-102.3669 1171.9676,-101.1248 1182.8489,-99.7659 1182.8489,-99.7659"/>
<text text-anchor="middle" x="1171.7655" y="-113.4139" font-family="Helvetica,sans-Serif" font-size="10.00" fill="#000000">1</text>
<text text-anchor="middle" x="1126.3086" y="-121.3084" font-family="Helvetica,sans-Serif" font-size="10.00" fill="#000000">*</text>
</g>
<!-- A4 -->
<g id="node5" class="node">
<title>A4</title>
<polygon fill="none" stroke="#000000" points="1192,-195 1192,-239 1279,-239 1279,-195 1192,-195"/>
<text text-anchor="start" x="1213.6835" y="-220" font-family="Helvetica,sans-Serif" font-size="10.00" fill="#000000">&lt;&lt;Enum&gt;</text>
<text text-anchor="start" x="1201.886" y="-208" font-family="Helvetica,sans-Serif" font-size="10.00" fill="#000000">TipoAsistenicia</text>
<polygon fill="none" stroke="#000000" points="1192,-151 1192,-195 1279,-195 1279,-151 1192,-151"/>
<text text-anchor="start" x="1208.554" y="-176" font-family="Helvetica,sans-Serif" font-size="10.00" fill="#000000">PRESENTE</text>
<text text-anchor="start" x="1211.8885" y="-164" font-family="Helvetica,sans-Serif" font-size="10.00" fill="#000000">AUSENTE</text>
</g>
<!-- A3&#45;&gt;A4 -->
<g id="edge5" class="edge">
<title>A3&#45;&gt;A4</title>
<path fill="none" stroke="#000000" d="M1133.1932,-195C1149.8015,-195 1166.327,-195 1181.0825,-195"/>
<polygon fill="#000000" stroke="#000000" points="1191.4899,-195 1181.4899,-199.5001 1186.4899,-195 1181.4899,-195.0001 1181.4899,-195.0001 1181.4899,-195.0001 1186.4899,-195 1181.4898,-190.5001 1191.4899,-195 1191.4899,-195"/>
<text text-anchor="middle" x="1173.3637" y="-200.4524" font-family="Helvetica,sans-Serif" font-size="10.00" fill="#000000">1</text>
<text text-anchor="middle" x="1151.3193" y="-183.5476" font-family="Helvetica,sans-Serif" font-size="10.00" fill="#000000">*</text>
</g>
</g>
</svg>
