<?xml version="1.0" encoding="UTF-8" standalone="no"?>
<!DOCTYPE svg PUBLIC "-//W3C//DTD SVG 1.1//EN"
 "http://www.w3.org/Graphics/SVG/1.1/DTD/svg11.dtd">
<!-- Generated by graphviz version 2.40.1 (20161225.0304)
 -->
<!-- Title: G Pages: 1 -->
<svg width="578pt" height="198pt"
 viewBox="0.00 0.00 577.58 198.00" xmlns="http://www.w3.org/2000/svg" xmlns:xlink="http://www.w3.org/1999/xlink">
<g id="graph0" class="graph" transform="scale(1 1) rotate(0) translate(4 194)">
<title>G</title>
<polygon fill="#ffffff" stroke="transparent" points="-4,4 -4,-194 573.579,-194 573.579,4 -4,4"/>
<!-- A0 -->
<g id="node1" class="node">
<title>A0</title>
<polygon fill="none" stroke="#000000" points=".5,-83 .5,-115 85.5,-115 85.5,-83 .5,-83"/>
<text text-anchor="start" x="29.667" y="-96" font-family="Helvetica,sans-Serif" font-size="10.00" fill="#000000">Curso</text>
<polygon fill="none" stroke="#000000" points=".5,-51 .5,-83 85.5,-83 85.5,-51 .5,-51"/>
<text text-anchor="start" x="10.496" y="-64" font-family="Helvetica,sans-Serif" font-size="10.00" fill="#000000">&#45;nombre:Texto</text>
</g>
<!-- A1 -->
<g id="node2" class="node">
<title>A1</title>
<polygon fill="none" stroke="#000000" points="135.5,-158 135.5,-190 278.5,-190 278.5,-158 135.5,-158"/>
<text text-anchor="start" x="183.3795" y="-171" font-family="Helvetica,sans-Serif" font-size="10.00" fill="#000000">Estudiante</text>
<polygon fill="none" stroke="#000000" points="135.5,-66 135.5,-158 278.5,-158 278.5,-66 135.5,-66"/>
<text text-anchor="start" x="171.996" y="-139" font-family="Helvetica,sans-Serif" font-size="10.00" fill="#000000">&#45;nombres:Texto</text>
<text text-anchor="start" x="171.717" y="-127" font-family="Helvetica,sans-Serif" font-size="10.00" fill="#000000">&#45;apellidos:Texto</text>
<text text-anchor="start" x="145.322" y="-115" font-family="Helvetica,sans-Serif" font-size="10.00" fill="#000000">&#45;numeroIdentificacion:Texto</text>
<text text-anchor="start" x="177.2755" y="-103" font-family="Helvetica,sans-Serif" font-size="10.00" fill="#000000">&#45;correo:Texto</text>
<text text-anchor="start" x="173.657" y="-91" font-family="Helvetica,sans-Serif" font-size="10.00" fill="#000000">&#45;telefono:Texto</text>
<text text-anchor="start" x="178.101" y="-79" font-family="Helvetica,sans-Serif" font-size="10.00" fill="#000000">&#45;edad:Entero</text>
</g>
<!-- A0&#45;&gt;A1 -->
<g id="edge1" class="edge">
<title>A0&#45;&gt;A1</title>
<path fill="none" stroke="#000000" d="M96.9459,-97.9394C105.9522,-100.4107 115.4603,-103.0196 124.9601,-105.6263"/>
<polygon fill="none" stroke="#000000" points="96.7332,-97.8811 89.8886,-100.1509 85.1609,-94.7057 92.0055,-92.436 96.7332,-97.8811"/>
<polygon fill="#000000" stroke="#000000" points="134.8356,-108.336 124.0013,-110.0294 130.0138,-107.0129 125.192,-105.6898 125.192,-105.6898 125.192,-105.6898 130.0138,-107.0129 126.3828,-101.3502 134.8356,-108.336 134.8356,-108.336"/>
<text text-anchor="middle" x="115.119" y="-108.6907" font-family="Helvetica,sans-Serif" font-size="10.00" fill="#000000">*</text>
<text text-anchor="middle" x="104.8776" y="-88.351" font-family="Helvetica,sans-Serif" font-size="10.00" fill="#000000">1</text>
</g>
<!-- A2 -->
<g id="node3" class="node">
<title>A2</title>
<polygon fill="none" stroke="#000000" points="467.079,-32 467.079,-76 570.079,-76 570.079,-32 467.079,-32"/>
<text text-anchor="start" x="488.2895" y="-57" font-family="Helvetica,sans-Serif" font-size="10.00" fill="#000000">&lt;&lt;Registro&gt;&gt;</text>
<text text-anchor="start" x="492.468" y="-45" font-family="Helvetica,sans-Serif" font-size="10.00" fill="#000000">ClaseCurso</text>
<polygon fill="none" stroke="#000000" points="467.079,0 467.079,-32 570.079,-32 570.079,0 467.079,0"/>
<text text-anchor="start" x="476.626" y="-13" font-family="Helvetica,sans-Serif" font-size="10.00" fill="#000000">&#45;fechaClase:Fecha</text>
</g>
<!-- A0&#45;&gt;A2 -->
<g id="edge2" class="edge">
<title>A0&#45;&gt;A2</title>
<path fill="none" stroke="#000000" d="M96.9328,-65.5136C109.3283,-62.1453 122.5237,-59.0363 135,-57 247.1956,-38.6885 380.1143,-36.3502 456.2206,-36.8244"/>
<polygon fill="none" stroke="#000000" points="96.8891,-65.5259 92.2061,-71.0095 85.3431,-68.7958 90.0261,-63.3122 96.8891,-65.5259"/>
<polygon fill="#000000" stroke="#000000" points="466.5745,-36.9087 456.5381,-41.3271 461.5746,-36.8679 456.5748,-36.8272 456.5748,-36.8272 456.5748,-36.8272 461.5746,-36.8679 456.6114,-32.3274 466.5745,-36.9087 466.5745,-36.9087"/>
<text text-anchor="middle" x="448.3802" y="-42.2133" font-family="Helvetica,sans-Serif" font-size="10.00" fill="#000000">*</text>
<text text-anchor="middle" x="100.4802" y="-52.7241" font-family="Helvetica,sans-Serif" font-size="10.00" fill="#000000">1</text>
</g>
<!-- A3 -->
<g id="node4" class="node">
<title>A3</title>
<polygon fill="none" stroke="#000000" points="416.3695,-146 328.2095,-146 328.2095,-110 416.3695,-110 416.3695,-146"/>
<text text-anchor="middle" x="372.2895" y="-131" font-family="Helvetica,sans-Serif" font-size="10.00" fill="#000000">&lt;&lt;Registro&gt;&gt;</text>
<text text-anchor="middle" x="372.2895" y="-119" font-family="Helvetica,sans-Serif" font-size="10.00" fill="#000000">Asistencia</text>
</g>
<!-- A1&#45;&gt;A3 -->
<g id="edge3" class="edge">
<title>A1&#45;&gt;A3</title>
<path fill="none" stroke="#000000" d="M278.2534,-128C291.5171,-128 305.1683,-128 317.8154,-128"/>
<polygon fill="#000000" stroke="#000000" points="328.1722,-128 318.1723,-132.5001 323.1722,-128 318.1722,-128.0001 318.1722,-128.0001 318.1722,-128.0001 323.1722,-128 318.1722,-123.5001 328.1722,-128 328.1722,-128"/>
<text text-anchor="middle" x="310.0461" y="-133.4524" font-family="Helvetica,sans-Serif" font-size="10.00" fill="#000000">*</text>
</g>
<!-- A3&#45;&gt;A2 -->
<g id="edge4" class="edge">
<title>A3&#45;&gt;A2</title>
<path fill="none" stroke="#000000" d="M401.7922,-109.7872C417.8823,-99.8543 438.4071,-87.1837 457.7213,-75.2605"/>
<polygon fill="#000000" stroke="#000000" points="466.4899,-69.8474 460.3446,-78.9295 462.2353,-72.4739 457.9807,-75.1004 457.9807,-75.1004 457.9807,-75.1004 462.2353,-72.4739 455.6169,-71.2713 466.4899,-69.8474 466.4899,-69.8474"/>
<text text-anchor="middle" x="455.506" y="-83.5613" font-family="Helvetica,sans-Serif" font-size="10.00" fill="#000000">1</text>
<text text-anchor="middle" x="412.7761" y="-90.0733" font-family="Helvetica,sans-Serif" font-size="10.00" fill="#000000">*</text>
</g>
<!-- A4 -->
<g id="node5" class="node">
<title>A4</title>
<polygon fill="none" stroke="#000000" points="475.079,-138 475.079,-182 562.079,-182 562.079,-138 475.079,-138"/>
<text text-anchor="start" x="496.7625" y="-163" font-family="Helvetica,sans-Serif" font-size="10.00" fill="#000000">&lt;&lt;Enum&gt;</text>
<text text-anchor="start" x="484.965" y="-151" font-family="Helvetica,sans-Serif" font-size="10.00" fill="#000000">TipoAsistenicia</text>
<polygon fill="none" stroke="#000000" points="475.079,-94 475.079,-138 562.079,-138 562.079,-94 475.079,-94"/>
<text text-anchor="start" x="491.633" y="-119" font-family="Helvetica,sans-Serif" font-size="10.00" fill="#000000">PRESENTE</text>
<text text-anchor="start" x="494.9675" y="-107" font-family="Helvetica,sans-Serif" font-size="10.00" fill="#000000">AUSENTE</text>
</g>
<!-- A3&#45;&gt;A4 -->
<g id="edge5" class="edge">
<title>A3&#45;&gt;A4</title>
<path fill="none" stroke="#000000" d="M416.4268,-131.0275C431.4827,-132.0602 448.488,-133.2266 464.2209,-134.3058"/>
<polygon fill="#000000" stroke="#000000" points="474.3427,-135 464.0582,-138.8051 469.3545,-134.6578 464.3662,-134.3156 464.3662,-134.3156 464.3662,-134.3156 469.3545,-134.6578 464.6742,-129.8262 474.3427,-135 474.3427,-135"/>
<text text-anchor="middle" x="455.6807" y="-139.1922" font-family="Helvetica,sans-Serif" font-size="10.00" fill="#000000">1</text>
<text text-anchor="middle" x="435.0889" y="-120.8353" font-family="Helvetica,sans-Serif" font-size="10.00" fill="#000000">*</text>
</g>
</g>
</svg>
