<?xml version="1.0" encoding="UTF-8" standalone="no"?>
<!DOCTYPE svg PUBLIC "-//W3C//DTD SVG 1.1//EN"
 "http://www.w3.org/Graphics/SVG/1.1/DTD/svg11.dtd">
<!-- Generated by graphviz version 2.40.1 (20161225.0304)
 -->
<!-- Title: G Pages: 1 -->
<svg width="853pt" height="236pt"
 viewBox="0.00 0.00 853.00 236.00" xmlns="http://www.w3.org/2000/svg" xmlns:xlink="http://www.w3.org/1999/xlink">
<g id="graph0" class="graph" transform="scale(1 1) rotate(0) translate(4 232)">
<title>G</title>
<polygon fill="#ffffff" stroke="transparent" points="-4,4 -4,-232 849,-232 849,4 -4,4"/>
<!-- A0 -->
<g id="node1" class="node">
<title>A0</title>
<polygon fill="none" stroke="#000000" points=".5,-172 .5,-204 263.5,-204 263.5,-172 .5,-172"/>
<text text-anchor="start" x="118.667" y="-185" font-family="Helvetica,sans-Serif" font-size="10.00" fill="#000000">Curso</text>
<polygon fill="none" stroke="#000000" points=".5,-140 .5,-172 263.5,-172 263.5,-140 .5,-140"/>
<text text-anchor="start" x="99.496" y="-153" font-family="Helvetica,sans-Serif" font-size="10.00" fill="#000000">&#45;nombre:Texto</text>
<polygon fill="none" stroke="#000000" points=".5,-24 .5,-140 263.5,-140 263.5,-24 .5,-24"/>
<text text-anchor="start" x="70.186" y="-121" font-family="Helvetica,sans-Serif" font-size="10.00" fill="#000000">+constructor(nombre:Texto)</text>
<text text-anchor="start" x="36.274" y="-109" font-family="Helvetica,sans-Serif" font-size="10.00" fill="#000000">+agregarEstudiante(Estudiante:Estudiante)</text>
<text text-anchor="start" x="10.159" y="-97" font-family="Helvetica,sans-Serif" font-size="10.00" fill="#000000">+getEstudiante(numeroIdentificacion:Texto):Estudiante</text>
<text text-anchor="start" x="65.728" y="-85" font-family="Helvetica,sans-Serif" font-size="10.00" fill="#000000">+getEstudiantes():Estudiante*</text>
<text text-anchor="start" x="53.781" y="-73" font-family="Helvetica,sans-Serif" font-size="10.00" fill="#000000">+getListadoAlfabetico():Estudiante*</text>
<text text-anchor="start" x="42.9415" y="-61" font-family="Helvetica,sans-Serif" font-size="10.00" fill="#000000">+getListadoEdadDescente():Estudiante*</text>
<text text-anchor="start" x="44.6115" y="-49" font-family="Helvetica,sans-Serif" font-size="10.00" fill="#000000">+getListadoMenoresEdad():Estudiante*</text>
<text text-anchor="start" x="36.7185" y="-37" font-family="Helvetica,sans-Serif" font-size="10.00" fill="#000000">&#45;valiarNumeroIdentificacionExiste():Lógico</text>
</g>
<!-- A1 -->
<g id="node2" class="node">
<title>A1</title>
<polygon fill="none" stroke="#000000" points="313,-196 313,-228 845,-228 845,-196 313,-196"/>
<text text-anchor="start" x="555.3795" y="-209" font-family="Helvetica,sans-Serif" font-size="10.00" fill="#000000">Estudiante</text>
<polygon fill="none" stroke="#000000" points="313,-104 313,-196 845,-196 845,-104 313,-104"/>
<text text-anchor="start" x="543.996" y="-177" font-family="Helvetica,sans-Serif" font-size="10.00" fill="#000000">&#45;nombres:Texto</text>
<text text-anchor="start" x="543.717" y="-165" font-family="Helvetica,sans-Serif" font-size="10.00" fill="#000000">&#45;apellidos:Texto</text>
<text text-anchor="start" x="517.322" y="-153" font-family="Helvetica,sans-Serif" font-size="10.00" fill="#000000">&#45;numeroIdentificacion:Texto</text>
<text text-anchor="start" x="549.2755" y="-141" font-family="Helvetica,sans-Serif" font-size="10.00" fill="#000000">&#45;correo:Texto</text>
<text text-anchor="start" x="545.657" y="-129" font-family="Helvetica,sans-Serif" font-size="10.00" fill="#000000">&#45;telefono:Texto</text>
<text text-anchor="start" x="550.101" y="-117" font-family="Helvetica,sans-Serif" font-size="10.00" fill="#000000">&#45;edad:Entero</text>
<polygon fill="none" stroke="#000000" points="313,0 313,-104 845,-104 845,0 313,0"/>
<text text-anchor="start" x="322.965" y="-85" font-family="Helvetica,sans-Serif" font-size="10.00" fill="#000000">+constructor(nombres:Texto,apellidos:Texto,numeroIdentificacion:Texto, correo:Texto, telefono:Texto, edad:Entero)</text>
<text text-anchor="start" x="533.023" y="-73" font-family="Helvetica,sans-Serif" font-size="10.00" fill="#000000">+geNombres():Texto</text>
<text text-anchor="start" x="531.6295" y="-61" font-family="Helvetica,sans-Serif" font-size="10.00" fill="#000000">+getApellidos():Texto</text>
<text text-anchor="start" x="504.9595" y="-49" font-family="Helvetica,sans-Serif" font-size="10.00" fill="#000000">+getNumeroIdentificacion():Texto</text>
<text text-anchor="start" x="536.6335" y="-37" font-family="Helvetica,sans-Serif" font-size="10.00" fill="#000000">+getCorreo():Texto</text>
<text text-anchor="start" x="532.4595" y="-25" font-family="Helvetica,sans-Serif" font-size="10.00" fill="#000000">+getTelefono():Texto</text>
<text text-anchor="start" x="536.624" y="-13" font-family="Helvetica,sans-Serif" font-size="10.00" fill="#000000">+getEdad(): Entero</text>
</g>
<!-- A0&#45;&gt;A1 -->
<g id="edge1" class="edge">
<title>A0&#45;&gt;A1</title>
<path fill="none" stroke="#000000" d="M275.1692,-114C284.1699,-114 293.3697,-114 302.6987,-114"/>
<polygon fill="none" stroke="#000000" points="275.0426,-114.0001 269.0426,-118 263.0426,-114 269.0427,-110 275.0426,-114.0001"/>
<polygon fill="#000000" stroke="#000000" points="312.869,-114 302.8691,-118.5001 307.869,-114 302.869,-114.0001 302.869,-114.0001 302.869,-114.0001 307.869,-114 302.869,-109.5001 312.869,-114 312.869,-114"/>
<text text-anchor="middle" x="294.7429" y="-119.4524" font-family="Helvetica,sans-Serif" font-size="10.00" fill="#000000">*</text>
<text text-anchor="middle" x="281.1688" y="-102.5476" font-family="Helvetica,sans-Serif" font-size="10.00" fill="#000000">1</text>
</g>
</g>
</svg>
