<?xml version="1.0" encoding="UTF-8" standalone="no"?>
<!DOCTYPE svg PUBLIC "-//W3C//DTD SVG 1.1//EN"
 "http://www.w3.org/Graphics/SVG/1.1/DTD/svg11.dtd">
<!-- Generated by graphviz version 2.40.1 (20161225.0304)
 -->
<!-- Title: G Pages: 1 -->
<svg width="1500pt" height="364pt"
 viewBox="0.00 0.00 1500.00 364.00" xmlns="http://www.w3.org/2000/svg" xmlns:xlink="http://www.w3.org/1999/xlink">
<g id="graph0" class="graph" transform="scale(1 1) rotate(0) translate(4 360)">
<title>G</title>
<polygon fill="#ffffff" stroke="transparent" points="-4,4 -4,-360 1496,-360 1496,4 -4,4"/>
<!-- A0 -->
<g id="node1" class="node">
<title>A0</title>
<polygon fill="none" stroke="#000000" points="0,-220 0,-252 316,-252 316,-220 0,-220"/>
<text text-anchor="start" x="144.667" y="-233" font-family="Helvetica,sans-Serif" font-size="10.00" fill="#000000">Curso</text>
<polygon fill="none" stroke="#000000" points="0,-188 0,-220 316,-220 316,-188 0,-188"/>
<text text-anchor="start" x="125.496" y="-201" font-family="Helvetica,sans-Serif" font-size="10.00" fill="#000000">&#45;nombre:Texto</text>
<polygon fill="none" stroke="#000000" points="0,0 0,-188 316,-188 316,0 0,0"/>
<text text-anchor="start" x="96.186" y="-169" font-family="Helvetica,sans-Serif" font-size="10.00" fill="#000000">+constructor(nombre:Texto)</text>
<text text-anchor="start" x="113.1335" y="-157" font-family="Helvetica,sans-Serif" font-size="10.00" fill="#000000">+getNombre():Texto</text>
<text text-anchor="start" x="62.274" y="-145" font-family="Helvetica,sans-Serif" font-size="10.00" fill="#000000">+agregarEstudiante(Estudiante:Estudiante)</text>
<text text-anchor="start" x="62.7185" y="-133" font-family="Helvetica,sans-Serif" font-size="10.00" fill="#000000">&#45;valiarNumeroIdentificacionExiste():Lógico</text>
<text text-anchor="start" x="36.159" y="-121" font-family="Helvetica,sans-Serif" font-size="10.00" fill="#000000">+getEstudiante(numeroIdentificacion:Texto):Estudiante</text>
<text text-anchor="start" x="91.728" y="-109" font-family="Helvetica,sans-Serif" font-size="10.00" fill="#000000">+getEstudiantes():Estudiante*</text>
<text text-anchor="start" x="79.781" y="-97" font-family="Helvetica,sans-Serif" font-size="10.00" fill="#000000">+getListadoAlfabetico():Estudiante*</text>
<text text-anchor="start" x="68.9415" y="-85" font-family="Helvetica,sans-Serif" font-size="10.00" fill="#000000">+getListadoEdadDescente():Estudiante*</text>
<text text-anchor="start" x="70.6115" y="-73" font-family="Helvetica,sans-Serif" font-size="10.00" fill="#000000">+getListadoMenoresEdad():Estudiante*</text>
<text text-anchor="start" x="9.5095" y="-61" font-family="Helvetica,sans-Serif" font-size="10.00" fill="#000000">+adicionarNotarParcial(nombreNotaParcial:Texto, porcentaje:Real)</text>
<text text-anchor="start" x="33.4045" y="-49" font-family="Helvetica,sans-Serif" font-size="10.00" fill="#000000">+getNotarParcial(nombreNotaParcial:Texto):NotaParcial</text>
<text text-anchor="start" x="51.165" y="-37" font-family="Helvetica,sans-Serif" font-size="10.00" fill="#000000">+getListadoEstudiantesMayorNota():Estudiante*</text>
<text text-anchor="start" x="58.1105" y="-25" font-family="Helvetica,sans-Serif" font-size="10.00" fill="#000000">+getListadoAlfabeticoPerdieron():Estudiante*</text>
<text text-anchor="start" x="92.8525" y="-13" font-family="Helvetica,sans-Serif" font-size="10.00" fill="#000000">+validarParcentajes():Lógico</text>
</g>
<!-- A1 -->
<g id="node2" class="node">
<title>A1</title>
<polygon fill="none" stroke="#000000" points="366,-324 366,-356 898,-356 898,-324 366,-324"/>
<text text-anchor="start" x="608.3795" y="-337" font-family="Helvetica,sans-Serif" font-size="10.00" fill="#000000">Estudiante</text>
<polygon fill="none" stroke="#000000" points="366,-232 366,-324 898,-324 898,-232 366,-232"/>
<text text-anchor="start" x="596.996" y="-305" font-family="Helvetica,sans-Serif" font-size="10.00" fill="#000000">&#45;nombres:Texto</text>
<text text-anchor="start" x="596.717" y="-293" font-family="Helvetica,sans-Serif" font-size="10.00" fill="#000000">&#45;apellidos:Texto</text>
<text text-anchor="start" x="570.322" y="-281" font-family="Helvetica,sans-Serif" font-size="10.00" fill="#000000">&#45;numeroIdentificacion:Texto</text>
<text text-anchor="start" x="602.2755" y="-269" font-family="Helvetica,sans-Serif" font-size="10.00" fill="#000000">&#45;correo:Texto</text>
<text text-anchor="start" x="598.657" y="-257" font-family="Helvetica,sans-Serif" font-size="10.00" fill="#000000">&#45;telefono:Texto</text>
<text text-anchor="start" x="603.101" y="-245" font-family="Helvetica,sans-Serif" font-size="10.00" fill="#000000">&#45;edad:Entero</text>
<polygon fill="none" stroke="#000000" points="366,-68 366,-232 898,-232 898,-68 366,-68"/>
<text text-anchor="start" x="375.965" y="-213" font-family="Helvetica,sans-Serif" font-size="10.00" fill="#000000">+constructor(nombres:Texto,apellidos:Texto,numeroIdentificacion:Texto, correo:Texto, telefono:Texto, edad:Entero)</text>
<text text-anchor="start" x="586.023" y="-201" font-family="Helvetica,sans-Serif" font-size="10.00" fill="#000000">+geNombres():Texto</text>
<text text-anchor="start" x="584.6295" y="-189" font-family="Helvetica,sans-Serif" font-size="10.00" fill="#000000">+getApellidos():Texto</text>
<text text-anchor="start" x="557.9595" y="-177" font-family="Helvetica,sans-Serif" font-size="10.00" fill="#000000">+getNumeroIdentificacion():Texto</text>
<text text-anchor="start" x="589.6335" y="-165" font-family="Helvetica,sans-Serif" font-size="10.00" fill="#000000">+getCorreo():Texto</text>
<text text-anchor="start" x="585.4595" y="-153" font-family="Helvetica,sans-Serif" font-size="10.00" fill="#000000">+getTelefono():Texto</text>
<text text-anchor="start" x="589.624" y="-141" font-family="Helvetica,sans-Serif" font-size="10.00" fill="#000000">+getEdad(): Entero</text>
<text text-anchor="start" x="522.397" y="-129" font-family="Helvetica,sans-Serif" font-size="10.00" fill="#000000">+adicionarNotaObtenida(notaParcial:NotaParcial)</text>
<text text-anchor="start" x="499.051" y="-117" font-family="Helvetica,sans-Serif" font-size="10.00" fill="#000000">+getNotaObtenida(nombreNotaParcial:Texto):NotaObtenida</text>
<text text-anchor="start" x="548.781" y="-105" font-family="Helvetica,sans-Serif" font-size="10.00" fill="#000000">+getNotasObtenidas():NotaObtenida*</text>
<text text-anchor="start" x="488.493" y="-93" font-family="Helvetica,sans-Serif" font-size="10.00" fill="#000000">+setNotaObtenida(nombreNotaParcial:Texto,notaObtenida:Real)</text>
<text text-anchor="start" x="586.58" y="-81" font-family="Helvetica,sans-Serif" font-size="10.00" fill="#000000">+getDefinitiva():Real</text>
</g>
<!-- A0&#45;&gt;A1 -->
<g id="edge1" class="edge">
<title>A0&#45;&gt;A1</title>
<path fill="none" stroke="#000000" d="M327.993,-156.8426C337.2168,-158.5161 346.5882,-160.2164 356.0447,-161.9322"/>
<polygon fill="none" stroke="#000000" points="327.9718,-156.8388 321.3541,-159.7034 316.1646,-154.6965 322.7823,-151.8319 327.9718,-156.8388"/>
<polygon fill="#000000" stroke="#000000" points="365.9275,-163.7253 355.2848,-166.3677 361.0079,-162.8326 356.0882,-161.94 356.0882,-161.94 356.0882,-161.94 361.0079,-162.8326 356.8916,-157.5123 365.9275,-163.7253 365.9275,-163.7253"/>
<text text-anchor="middle" x="346.5836" y="-165.806" font-family="Helvetica,sans-Serif" font-size="10.00" fill="#000000">*</text>
<text text-anchor="middle" x="335.5085" y="-146.6158" font-family="Helvetica,sans-Serif" font-size="10.00" fill="#000000">1</text>
</g>
<!-- A2 -->
<g id="node3" class="node">
<title>A2</title>
<polygon fill="none" stroke="#000000" points="1273.5,-115 1273.5,-159 1492.5,-159 1492.5,-115 1273.5,-115"/>
<text text-anchor="start" x="1352.7105" y="-140" font-family="Helvetica,sans-Serif" font-size="10.00" fill="#000000">&lt;&lt;Registro&gt;&gt;</text>
<text text-anchor="start" x="1357.165" y="-128" font-family="Helvetica,sans-Serif" font-size="10.00" fill="#000000">NotaParcial</text>
<polygon fill="none" stroke="#000000" points="1273.5,-71 1273.5,-115 1492.5,-115 1492.5,-71 1273.5,-71"/>
<text text-anchor="start" x="1350.496" y="-96" font-family="Helvetica,sans-Serif" font-size="10.00" fill="#000000">&#45;nombre:Texto</text>
<text text-anchor="start" x="1347.717" y="-84" font-family="Helvetica,sans-Serif" font-size="10.00" fill="#000000">&#45;porcenaje:Real</text>
<polygon fill="none" stroke="#000000" points="1273.5,-15 1273.5,-71 1492.5,-71 1492.5,-15 1273.5,-15"/>
<text text-anchor="start" x="1283.399" y="-52" font-family="Helvetica,sans-Serif" font-size="10.00" fill="#000000">+constructor(nombre:Texto, porcentaje:Real)</text>
<text text-anchor="start" x="1338.1335" y="-40" font-family="Helvetica,sans-Serif" font-size="10.00" fill="#000000">+getNombre():Texto</text>
<text text-anchor="start" x="1337.1595" y="-28" font-family="Helvetica,sans-Serif" font-size="10.00" fill="#000000">getPorcentaje():Real</text>
</g>
<!-- A0&#45;&gt;A2 -->
<g id="edge2" class="edge">
<title>A0&#45;&gt;A2</title>
<path fill="none" stroke="#000000" d="M327.798,-66.6101C340.6164,-63.575 353.4461,-60.972 366,-59 687.0452,-8.5691 1071.9736,-45.1423 1262.9136,-69.6716"/>
<polygon fill="none" stroke="#000000" points="327.6877,-66.6373 322.8212,-71.9587 316.0374,-69.5133 320.9039,-64.1919 327.6877,-66.6373"/>
<polygon fill="#000000" stroke="#000000" points="1272.975,-70.9762 1262.4794,-74.1529 1268.0165,-70.3332 1263.058,-69.6903 1263.058,-69.6903 1263.058,-69.6903 1268.0165,-70.3332 1263.6367,-65.2276 1272.975,-70.9762 1272.975,-70.9762"/>
<text text-anchor="middle" x="1253.9125" y="-74.0277" font-family="Helvetica,sans-Serif" font-size="10.00" fill="#000000">*</text>
<text text-anchor="middle" x="331.6097" y="-53.9631" font-family="Helvetica,sans-Serif" font-size="10.00" fill="#000000">1</text>
</g>
<!-- A3 -->
<g id="node4" class="node">
<title>A3</title>
<polygon fill="none" stroke="#000000" points="948.5,-207 948.5,-239 1223.5,-239 1223.5,-207 948.5,-207"/>
<text text-anchor="start" x="1055.156" y="-220" font-family="Helvetica,sans-Serif" font-size="10.00" fill="#000000">NotaObtenida</text>
<polygon fill="none" stroke="#000000" points="948.5,-175 948.5,-207 1223.5,-207 1223.5,-175 948.5,-175"/>
<text text-anchor="start" x="1042.654" y="-188" font-family="Helvetica,sans-Serif" font-size="10.00" fill="#000000">&#45;notaObtenida:Real</text>
<polygon fill="none" stroke="#000000" points="948.5,-107 948.5,-175 1223.5,-175 1223.5,-107 948.5,-107"/>
<text text-anchor="start" x="958.3355" y="-156" font-family="Helvetica,sans-Serif" font-size="10.00" fill="#000000">+constructor(notaParcial:NotaParcial, notaObtenida:Real)</text>
<text text-anchor="start" x="1019.7435" y="-144" font-family="Helvetica,sans-Serif" font-size="10.00" fill="#000000">+getNotaParcial():NotaParcial</text>
<text text-anchor="start" x="1030.2915" y="-132" font-family="Helvetica,sans-Serif" font-size="10.00" fill="#000000">+getNotaObtenida():Real</text>
<text text-anchor="start" x="1000.557" y="-120" font-family="Helvetica,sans-Serif" font-size="10.00" fill="#000000">+setNotaObtenida(notaObtenida:Real)</text>
</g>
<!-- A1&#45;&gt;A3 -->
<g id="edge3" class="edge">
<title>A1&#45;&gt;A3</title>
<path fill="none" stroke="#000000" d="M910.3829,-188.0597C919.6432,-187.2633 928.7822,-186.4774 937.7335,-185.7076"/>
<polygon fill="none" stroke="#000000" points="910.0542,-188.0879 904.419,-192.5873 898.0983,-189.1161 903.7335,-184.6167 910.0542,-188.0879"/>
<polygon fill="#000000" stroke="#000000" points="947.7566,-184.8456 938.179,-190.186 942.775,-185.2741 937.7934,-185.7025 937.7934,-185.7025 937.7934,-185.7025 942.775,-185.2741 937.4077,-181.2191 947.7566,-184.8456 947.7566,-184.8456"/>
<text text-anchor="middle" x="930.4213" y="-191.82" font-family="Helvetica,sans-Serif" font-size="10.00" fill="#000000">*</text>
<text text-anchor="middle" x="915.4336" y="-176.1418" font-family="Helvetica,sans-Serif" font-size="10.00" fill="#000000">1</text>
</g>
<!-- A3&#45;&gt;A2 -->
<g id="edge4" class="edge">
<title>A3&#45;&gt;A2</title>
<path fill="none" stroke="#000000" d="M1223.1322,-133.1469C1236.433,-129.2955 1249.8506,-125.4103 1262.9553,-121.6156"/>
<polygon fill="#000000" stroke="#000000" points="1272.9084,-118.7336 1264.5547,-125.8375 1268.1057,-120.1243 1263.303,-121.515 1263.303,-121.515 1263.303,-121.515 1268.1057,-120.1243 1262.0514,-117.1926 1272.9084,-118.7336 1272.9084,-118.7336"/>
<text text-anchor="middle" x="1257.8484" y="-128.894" font-family="Helvetica,sans-Serif" font-size="10.00" fill="#000000">1</text>
<text text-anchor="middle" x="1238.1922" y="-116.9865" font-family="Helvetica,sans-Serif" font-size="10.00" fill="#000000">*</text>
</g>
</g>
</svg>
