<?xml version="1.0" encoding="UTF-8" standalone="no"?>
<!DOCTYPE svg PUBLIC "-//W3C//DTD SVG 1.1//EN"
 "http://www.w3.org/Graphics/SVG/1.1/DTD/svg11.dtd">
<!-- Generated by graphviz version 2.40.1 (20161225.0304)
 -->
<!-- Title: G Pages: 1 -->
<svg width="540pt" height="164pt"
 viewBox="0.00 0.00 540.00 164.00" xmlns="http://www.w3.org/2000/svg" xmlns:xlink="http://www.w3.org/1999/xlink">
<g id="graph0" class="graph" transform="scale(1 1) rotate(0) translate(4 160)">
<title>G</title>
<polygon fill="#ffffff" stroke="transparent" points="-4,4 -4,-160 536,-160 536,4 -4,4"/>
<!-- A0 -->
<g id="node1" class="node">
<title>A0</title>
<polygon fill="none" stroke="#000000" points="0,-124 0,-156 532,-156 532,-124 0,-124"/>
<text text-anchor="start" x="242.3795" y="-137" font-family="Helvetica,sans-Serif" font-size="10.00" fill="#000000">Estudiante</text>
<polygon fill="none" stroke="#000000" points="0,-32 0,-124 532,-124 532,-32 0,-32"/>
<text text-anchor="start" x="232.6605" y="-105" font-family="Helvetica,sans-Serif" font-size="10.00" fill="#000000">nombres:Texto</text>
<text text-anchor="start" x="232.3815" y="-93" font-family="Helvetica,sans-Serif" font-size="10.00" fill="#000000">apellidos:Texto</text>
<text text-anchor="start" x="204.5965" y="-81" font-family="Helvetica,sans-Serif" font-size="10.00" fill="#000000">numeroIdentificacion:Fecha</text>
<text text-anchor="start" x="237.94" y="-69" font-family="Helvetica,sans-Serif" font-size="10.00" fill="#000000">correo:Texto</text>
<text text-anchor="start" x="234.3215" y="-57" font-family="Helvetica,sans-Serif" font-size="10.00" fill="#000000">telefono:Texto</text>
<text text-anchor="start" x="238.7655" y="-45" font-family="Helvetica,sans-Serif" font-size="10.00" fill="#000000">edad:Entero</text>
<polygon fill="none" stroke="#000000" points="0,0 0,-32 532,-32 532,0 0,0"/>
<text text-anchor="start" x="9.965" y="-13" font-family="Helvetica,sans-Serif" font-size="10.00" fill="#000000">+constructor(nombres:Texto,apellidos:Texto,numeroIdentificacion:Texto, correo:Texto, telefono:Texto, edad:Entero)</text>
</g>
</g>
</svg>
