<?xml version="1.0" encoding="UTF-8" standalone="no"?>
<!DOCTYPE svg PUBLIC "-//W3C//DTD SVG 1.1//EN"
 "http://www.w3.org/Graphics/SVG/1.1/DTD/svg11.dtd">
<!-- Generated by graphviz version 2.40.1 (20161225.0304)
 -->
<!-- Title: G Pages: 1 -->
<svg width="582pt" height="168pt"
 viewBox="0.00 0.00 582.00 168.00" xmlns="http://www.w3.org/2000/svg" xmlns:xlink="http://www.w3.org/1999/xlink">
<g id="graph0" class="graph" transform="scale(1 1) rotate(0) translate(4 164)">
<title>G</title>
<polygon fill="#ffffff" stroke="transparent" points="-4,4 -4,-164 578,-164 578,4 -4,4"/>
<!-- A0 -->
<g id="node1" class="node">
<title>A0</title>
<polygon fill="none" stroke="#000000" points=".5,-53 .5,-85 85.5,-85 85.5,-53 .5,-53"/>
<text text-anchor="start" x="29.667" y="-66" font-family="Helvetica,sans-Serif" font-size="10.00" fill="#000000">Curso</text>
<polygon fill="none" stroke="#000000" points=".5,-21 .5,-53 85.5,-53 85.5,-21 .5,-21"/>
<text text-anchor="start" x="10.496" y="-34" font-family="Helvetica,sans-Serif" font-size="10.00" fill="#000000">&#45;nombre:Texto</text>
</g>
<!-- A1 -->
<g id="node2" class="node">
<title>A1</title>
<polygon fill="none" stroke="#000000" points="135.5,-128 135.5,-160 278.5,-160 278.5,-128 135.5,-128"/>
<text text-anchor="start" x="183.3795" y="-141" font-family="Helvetica,sans-Serif" font-size="10.00" fill="#000000">Estudiante</text>
<polygon fill="none" stroke="#000000" points="135.5,-36 135.5,-128 278.5,-128 278.5,-36 135.5,-36"/>
<text text-anchor="start" x="171.996" y="-109" font-family="Helvetica,sans-Serif" font-size="10.00" fill="#000000">&#45;nombres:Texto</text>
<text text-anchor="start" x="171.717" y="-97" font-family="Helvetica,sans-Serif" font-size="10.00" fill="#000000">&#45;apellidos:Texto</text>
<text text-anchor="start" x="145.322" y="-85" font-family="Helvetica,sans-Serif" font-size="10.00" fill="#000000">&#45;numeroIdentificacion:Texto</text>
<text text-anchor="start" x="177.2755" y="-73" font-family="Helvetica,sans-Serif" font-size="10.00" fill="#000000">&#45;correo:Texto</text>
<text text-anchor="start" x="173.657" y="-61" font-family="Helvetica,sans-Serif" font-size="10.00" fill="#000000">&#45;telefono:Texto</text>
<text text-anchor="start" x="178.101" y="-49" font-family="Helvetica,sans-Serif" font-size="10.00" fill="#000000">&#45;edad:Entero</text>
</g>
<!-- A0&#45;&gt;A1 -->
<g id="edge1" class="edge">
<title>A0&#45;&gt;A1</title>
<path fill="none" stroke="#000000" d="M96.9459,-67.9394C105.9522,-70.4107 115.4603,-73.0196 124.9601,-75.6263"/>
<polygon fill="none" stroke="#000000" points="96.7332,-67.8811 89.8886,-70.1509 85.1609,-64.7057 92.0055,-62.436 96.7332,-67.8811"/>
<polygon fill="#000000" stroke="#000000" points="134.8356,-78.336 124.0013,-80.0294 130.0138,-77.0129 125.192,-75.6898 125.192,-75.6898 125.192,-75.6898 130.0138,-77.0129 126.3828,-71.3502 134.8356,-78.336 134.8356,-78.336"/>
<text text-anchor="middle" x="115.119" y="-78.6907" font-family="Helvetica,sans-Serif" font-size="10.00" fill="#000000">*</text>
<text text-anchor="middle" x="104.8776" y="-58.351" font-family="Helvetica,sans-Serif" font-size="10.00" fill="#000000">1</text>
</g>
<!-- A2 -->
<g id="node3" class="node">
<title>A2</title>
<polygon fill="none" stroke="#000000" points="484,-44 484,-76 574,-76 574,-44 484,-44"/>
<text text-anchor="start" x="503.165" y="-57" font-family="Helvetica,sans-Serif" font-size="10.00" fill="#000000">NotaParcial</text>
<polygon fill="none" stroke="#000000" points="484,0 484,-44 574,-44 574,0 484,0"/>
<text text-anchor="start" x="496.496" y="-25" font-family="Helvetica,sans-Serif" font-size="10.00" fill="#000000">&#45;nombre:Texto</text>
<text text-anchor="start" x="493.717" y="-13" font-family="Helvetica,sans-Serif" font-size="10.00" fill="#000000">&#45;porcenaje:Real</text>
</g>
<!-- A0&#45;&gt;A2 -->
<g id="edge2" class="edge">
<title>A0&#45;&gt;A2</title>
<path fill="none" stroke="#000000" d="M96.8635,-35.0531C109.2627,-31.7092 122.4771,-28.7265 135,-27 254.7746,-10.4868 396.9024,-22.0082 473.4708,-30.732"/>
<polygon fill="none" stroke="#000000" points="96.8191,-35.0656 92.1385,-40.5512 85.2746,-38.3405 89.9552,-32.8548 96.8191,-35.0656"/>
<polygon fill="#000000" stroke="#000000" points="483.8306,-31.9412 473.3763,-35.2514 478.8644,-31.3615 473.8981,-30.7818 473.8981,-30.7818 473.8981,-30.7818 478.8644,-31.3615 474.4198,-26.3121 483.8306,-31.9412 483.8306,-31.9412"/>
<text text-anchor="middle" x="464.8468" y="-35.2352" font-family="Helvetica,sans-Serif" font-size="10.00" fill="#000000">*</text>
<text text-anchor="middle" x="100.4061" y="-22.2623" font-family="Helvetica,sans-Serif" font-size="10.00" fill="#000000">1</text>
</g>
<!-- A3 -->
<g id="node4" class="node">
<title>A3</title>
<polygon fill="none" stroke="#000000" points="328,-83 328,-115 434,-115 434,-83 328,-83"/>
<text text-anchor="start" x="350.156" y="-96" font-family="Helvetica,sans-Serif" font-size="10.00" fill="#000000">NotaObtenida</text>
<polygon fill="none" stroke="#000000" points="328,-51 328,-83 434,-83 434,-51 328,-51"/>
<text text-anchor="start" x="337.654" y="-64" font-family="Helvetica,sans-Serif" font-size="10.00" fill="#000000">&#45;notaObtenida:Real</text>
</g>
<!-- A1&#45;&gt;A3 -->
<g id="edge3" class="edge">
<title>A1&#45;&gt;A3</title>
<path fill="none" stroke="#000000" d="M290.4212,-90.7861C299.6084,-89.9964 308.8448,-89.2025 317.7223,-88.4393"/>
<polygon fill="none" stroke="#000000" points="290.1872,-90.8062 284.5518,-95.3054 278.2312,-91.834 283.8666,-87.3348 290.1872,-90.8062"/>
<polygon fill="#000000" stroke="#000000" points="327.9544,-87.5598 318.3766,-92.8998 322.9727,-87.9881 317.9911,-88.4163 317.9911,-88.4163 317.9911,-88.4163 322.9727,-87.9881 317.6057,-83.9329 327.9544,-87.5598 327.9544,-87.5598"/>
<text text-anchor="middle" x="310.6187" y="-94.5335" font-family="Helvetica,sans-Serif" font-size="10.00" fill="#000000">*</text>
<text text-anchor="middle" x="295.5669" y="-78.8603" font-family="Helvetica,sans-Serif" font-size="10.00" fill="#000000">1</text>
</g>
<!-- A3&#45;&gt;A2 -->
<g id="edge4" class="edge">
<title>A3&#45;&gt;A2</title>
<path fill="none" stroke="#000000" d="M434.0134,-66.8811C446.9681,-62.9421 460.8583,-58.7188 473.9077,-54.751"/>
<polygon fill="#000000" stroke="#000000" points="483.6933,-51.7757 475.4349,-58.9902 478.9095,-53.2302 474.1258,-54.6848 474.1258,-54.6848 474.1258,-54.6848 478.9095,-53.2302 472.8167,-50.3794 483.6933,-51.7757 483.6933,-51.7757"/>
<text text-anchor="middle" x="468.8099" y="-62.1355" font-family="Helvetica,sans-Serif" font-size="10.00" fill="#000000">1</text>
<text text-anchor="middle" x="448.8968" y="-50.5213" font-family="Helvetica,sans-Serif" font-size="10.00" fill="#000000">*</text>
</g>
</g>
</svg>
