<?xml version="1.0" encoding="UTF-8" standalone="no"?>
<!DOCTYPE svg PUBLIC "-//W3C//DTD SVG 1.1//EN"
 "http://www.w3.org/Graphics/SVG/1.1/DTD/svg11.dtd">
<!-- Generated by graphviz version 2.40.1 (20161225.0304)
 -->
<!-- Title: G Pages: 1 -->
<svg width="540pt" height="236pt"
 viewBox="0.00 0.00 540.00 236.00" xmlns="http://www.w3.org/2000/svg" xmlns:xlink="http://www.w3.org/1999/xlink">
<g id="graph0" class="graph" transform="scale(1 1) rotate(0) translate(4 232)">
<title>G</title>
<polygon fill="#ffffff" stroke="transparent" points="-4,4 -4,-232 536,-232 536,4 -4,4"/>
<!-- A0 -->
<g id="node1" class="node">
<title>A0</title>
<polygon fill="none" stroke="#000000" points="0,-196 0,-228 532,-228 532,-196 0,-196"/>
<text text-anchor="start" x="242.3795" y="-209" font-family="Helvetica,sans-Serif" font-size="10.00" fill="#000000">Estudiante</text>
<polygon fill="none" stroke="#000000" points="0,-104 0,-196 532,-196 532,-104 0,-104"/>
<text text-anchor="start" x="232.6605" y="-177" font-family="Helvetica,sans-Serif" font-size="10.00" fill="#000000">nombres:Texto</text>
<text text-anchor="start" x="232.3815" y="-165" font-family="Helvetica,sans-Serif" font-size="10.00" fill="#000000">apellidos:Texto</text>
<text text-anchor="start" x="205.9865" y="-153" font-family="Helvetica,sans-Serif" font-size="10.00" fill="#000000">numeroIdentificacion:Texto</text>
<text text-anchor="start" x="237.94" y="-141" font-family="Helvetica,sans-Serif" font-size="10.00" fill="#000000">correo:Texto</text>
<text text-anchor="start" x="234.3215" y="-129" font-family="Helvetica,sans-Serif" font-size="10.00" fill="#000000">telefono:Texto</text>
<text text-anchor="start" x="238.7655" y="-117" font-family="Helvetica,sans-Serif" font-size="10.00" fill="#000000">edad:Entero</text>
<polygon fill="none" stroke="#000000" points="0,0 0,-104 532,-104 532,0 0,0"/>
<text text-anchor="start" x="9.965" y="-85" font-family="Helvetica,sans-Serif" font-size="10.00" fill="#000000">+constructor(nombres:Texto,apellidos:Texto,numeroIdentificacion:Texto, correo:Texto, telefono:Texto, edad:Entero)</text>
<text text-anchor="start" x="220.023" y="-73" font-family="Helvetica,sans-Serif" font-size="10.00" fill="#000000">+geNombres():Texto</text>
<text text-anchor="start" x="218.6295" y="-61" font-family="Helvetica,sans-Serif" font-size="10.00" fill="#000000">+getApellidos():Texto</text>
<text text-anchor="start" x="191.9595" y="-49" font-family="Helvetica,sans-Serif" font-size="10.00" fill="#000000">+getNumeroIdentificacion():Texto</text>
<text text-anchor="start" x="223.6335" y="-37" font-family="Helvetica,sans-Serif" font-size="10.00" fill="#000000">+getCorreo():Texto</text>
<text text-anchor="start" x="219.4595" y="-25" font-family="Helvetica,sans-Serif" font-size="10.00" fill="#000000">+getTelefono():Texto</text>
<text text-anchor="start" x="223.624" y="-13" font-family="Helvetica,sans-Serif" font-size="10.00" fill="#000000">+getEdad(): Entero</text>
</g>
</g>
</svg>
