<?xml version="1.0" encoding="UTF-8" standalone="no"?>
<!DOCTYPE svg PUBLIC "-//W3C//DTD SVG 1.1//EN"
 "http://www.w3.org/Graphics/SVG/1.1/DTD/svg11.dtd">
<!-- Generated by graphviz version 2.40.1 (20161225.0304)
 -->
<!-- Title: G Pages: 1 -->
<svg width="632pt" height="224pt"
 viewBox="0.00 0.00 632.00 224.00" xmlns="http://www.w3.org/2000/svg" xmlns:xlink="http://www.w3.org/1999/xlink">
<g id="graph0" class="graph" transform="scale(1 1) rotate(0) translate(4 220)">
<title>G</title>
<polygon fill="#ffffff" stroke="transparent" points="-4,4 -4,-220 628,-220 628,4 -4,4"/>
<!-- A0 -->
<g id="node1" class="node">
<title>A0</title>
<polygon fill="none" stroke="#000000" points="0,-184 0,-216 624,-216 624,-184 0,-184"/>
<text text-anchor="start" x="288.3795" y="-197" font-family="Helvetica,sans-Serif" font-size="10.00" fill="#000000">Estudiante</text>
<polygon fill="none" stroke="#000000" points="0,-92 0,-184 624,-184 624,-92 0,-92"/>
<text text-anchor="start" x="278.6605" y="-165" font-family="Helvetica,sans-Serif" font-size="10.00" fill="#000000">nombres:Texto</text>
<text text-anchor="start" x="278.3815" y="-153" font-family="Helvetica,sans-Serif" font-size="10.00" fill="#000000">apellidos:Texto</text>
<text text-anchor="start" x="251.9865" y="-141" font-family="Helvetica,sans-Serif" font-size="10.00" fill="#000000">numeroIdentificacion:Texto</text>
<text text-anchor="start" x="283.94" y="-129" font-family="Helvetica,sans-Serif" font-size="10.00" fill="#000000">correo:Texto</text>
<text text-anchor="start" x="280.3215" y="-117" font-family="Helvetica,sans-Serif" font-size="10.00" fill="#000000">telefono:Texto</text>
<text text-anchor="start" x="284.7655" y="-105" font-family="Helvetica,sans-Serif" font-size="10.00" fill="#000000">edad:Entero</text>
<polygon fill="none" stroke="#000000" points="0,0 0,-92 624,-92 624,0 0,0"/>
<text text-anchor="start" x="9.988" y="-73" font-family="Helvetica,sans-Serif" font-size="10.00" fill="#000000">+constructor(nombres:Texto,apellidos:Texto,numeroIdentificacion:Texto, correo:Texto, telefono:Texto, edad:Entero)+geNombres():Texto</text>
<text text-anchor="start" x="264.6295" y="-61" font-family="Helvetica,sans-Serif" font-size="10.00" fill="#000000">+getApellidos():Texto</text>
<text text-anchor="start" x="237.9595" y="-49" font-family="Helvetica,sans-Serif" font-size="10.00" fill="#000000">+getNumeroIdentificacion():Texto</text>
<text text-anchor="start" x="269.6335" y="-37" font-family="Helvetica,sans-Serif" font-size="10.00" fill="#000000">+getCorreo():Texto</text>
<text text-anchor="start" x="265.4595" y="-25" font-family="Helvetica,sans-Serif" font-size="10.00" fill="#000000">+getTelefono():Texto</text>
<text text-anchor="start" x="269.624" y="-13" font-family="Helvetica,sans-Serif" font-size="10.00" fill="#000000">+getEdad(): Entero</text>
</g>
</g>
</svg>
