<?xml version="1.0" encoding="UTF-8" standalone="no"?>
<!DOCTYPE svg PUBLIC "-//W3C//DTD SVG 1.1//EN"
 "http://www.w3.org/Graphics/SVG/1.1/DTD/svg11.dtd">
<!-- Generated by graphviz version 2.40.1 (20161225.0304)
 -->
<!-- Title: G Pages: 1 -->
<svg width="540pt" height="256pt"
 viewBox="0.00 0.00 540.00 256.00" xmlns="http://www.w3.org/2000/svg" xmlns:xlink="http://www.w3.org/1999/xlink">
<g id="graph0" class="graph" transform="scale(1 1) rotate(0) translate(4 252)">
<title>G</title>
<polygon fill="#ffffff" stroke="transparent" points="-4,4 -4,-252 536,-252 536,4 -4,4"/>
<!-- A0 -->
<g id="node1" class="node">
<title>A0</title>
<polygon fill="none" stroke="#000000" points="0,-216 0,-248 532,-248 532,-216 0,-216"/>
<text text-anchor="start" x="242.3795" y="-229" font-family="Helvetica,sans-Serif" font-size="10.00" fill="#000000">Estudiante</text>
<polygon fill="none" stroke="#000000" points="0,-124 0,-216 532,-216 532,-124 0,-124"/>
<text text-anchor="start" x="232.6605" y="-197" font-family="Helvetica,sans-Serif" font-size="10.00" fill="#000000">nombres:Texto</text>
<text text-anchor="start" x="232.3815" y="-185" font-family="Helvetica,sans-Serif" font-size="10.00" fill="#000000">apellidos:Texto</text>
<text text-anchor="start" x="204.5965" y="-173" font-family="Helvetica,sans-Serif" font-size="10.00" fill="#000000">numeroIdentificacion:Fecha</text>
<text text-anchor="start" x="237.94" y="-161" font-family="Helvetica,sans-Serif" font-size="10.00" fill="#000000">correo:Texto</text>
<text text-anchor="start" x="234.3215" y="-149" font-family="Helvetica,sans-Serif" font-size="10.00" fill="#000000">telefono:Texto</text>
<text text-anchor="start" x="238.7655" y="-137" font-family="Helvetica,sans-Serif" font-size="10.00" fill="#000000">edad:Entero</text>
<polygon fill="none" stroke="#000000" points="0,-92 0,-124 532,-124 532,-92 0,-92"/>
<text text-anchor="start" x="9.965" y="-105" font-family="Helvetica,sans-Serif" font-size="10.00" fill="#000000">+constructor(nombres:Texto,apellidos:Texto,numeroIdentificacion:Texto, correo:Texto, telefono:Texto, edad:Entero)</text>
<polygon fill="none" stroke="#000000" points="0,0 0,-92 532,-92 532,0 0,0"/>
<text text-anchor="start" x="220.023" y="-73" font-family="Helvetica,sans-Serif" font-size="10.00" fill="#000000">+geNombres():Texto</text>
<text text-anchor="start" x="218.6295" y="-61" font-family="Helvetica,sans-Serif" font-size="10.00" fill="#000000">+getApellidos():Texto</text>
<text text-anchor="start" x="191.9595" y="-49" font-family="Helvetica,sans-Serif" font-size="10.00" fill="#000000">+getNumeroIdentificacion():Texto</text>
<text text-anchor="start" x="223.6335" y="-37" font-family="Helvetica,sans-Serif" font-size="10.00" fill="#000000">+getCorreo():Texto</text>
<text text-anchor="start" x="219.4595" y="-25" font-family="Helvetica,sans-Serif" font-size="10.00" fill="#000000">+getTelefono():Texto</text>
<text text-anchor="start" x="223.624" y="-13" font-family="Helvetica,sans-Serif" font-size="10.00" fill="#000000">+getEdad(): Entero</text>
</g>
</g>
</svg>
