<?xml version="1.0" encoding="UTF-8" standalone="no"?>
<!DOCTYPE svg PUBLIC "-//W3C//DTD SVG 1.1//EN"
 "http://www.w3.org/Graphics/SVG/1.1/DTD/svg11.dtd">
<!-- Generated by graphviz version 2.40.1 (20161225.0304)
 -->
<!-- Title: G Pages: 1 -->
<svg width="598pt" height="342pt"
 viewBox="0.00 0.00 598.00 342.00" xmlns="http://www.w3.org/2000/svg" xmlns:xlink="http://www.w3.org/1999/xlink">
<g id="graph0" class="graph" transform="scale(1 1) rotate(0) translate(4 338)">
<title>G</title>
<polygon fill="#ffffff" stroke="transparent" points="-4,4 -4,-338 594,-338 594,4 -4,4"/>
<!-- A0 -->
<g id="node1" class="node">
<title>A0</title>
<polygon fill="none" stroke="#000000" points="0,-240 0,-272 212,-272 212,-240 0,-240"/>
<text text-anchor="start" x="88.768" y="-253" font-family="Helvetica,sans-Serif" font-size="10.00" fill="#000000">Agenda</text>
<polygon fill="none" stroke="#000000" points="0,-196 0,-240 212,-240 212,-196 0,-196"/>
<text text-anchor="start" x="73.496" y="-221" font-family="Helvetica,sans-Serif" font-size="10.00" fill="#000000">&#45;nombre:Texto</text>
<text text-anchor="start" x="66.8265" y="-209" font-family="Helvetica,sans-Serif" font-size="10.00" fill="#000000">descripcion:Texto</text>
<polygon fill="none" stroke="#000000" points="0,-104 0,-196 212,-196 212,-104 0,-104"/>
<text text-anchor="start" x="61.1335" y="-177" font-family="Helvetica,sans-Serif" font-size="10.00" fill="#000000">+getNombre():Texto</text>
<text text-anchor="start" x="52.7995" y="-165" font-family="Helvetica,sans-Serif" font-size="10.00" fill="#000000">+getDescripcion():Texto</text>
<text text-anchor="start" x="22.2255" y="-153" font-family="Helvetica,sans-Serif" font-size="10.00" fill="#000000">+agregarContacto(Contacto contacto)</text>
<text text-anchor="start" x="44.456" y="-141" font-family="Helvetica,sans-Serif" font-size="10.00" fill="#000000">+getContactos():Conctacto*</text>
<text text-anchor="start" x="59.184" y="-129" font-family="Helvetica,sans-Serif" font-size="10.00" fill="#000000">+getGrupos():Grupo*</text>
<text text-anchor="start" x="9.8675" y="-117" font-family="Helvetica,sans-Serif" font-size="10.00" fill="#000000">&#45;existeContacto(Contacto contacto):Lógico</text>
</g>
<!-- A1 -->
<g id="node2" class="node">
<title>A1</title>
<polygon fill="none" stroke="#000000" points="262.5,-172 262.5,-204 425.5,-204 425.5,-172 262.5,-172"/>
<text text-anchor="start" x="330.1075" y="-185" font-family="Helvetica,sans-Serif" font-size="10.00" fill="#000000">Grupo</text>
<polygon fill="none" stroke="#000000" points="262.5,-140 262.5,-172 425.5,-172 425.5,-140 262.5,-140"/>
<text text-anchor="start" x="311.496" y="-153" font-family="Helvetica,sans-Serif" font-size="10.00" fill="#000000">&#45;nombre:Texto</text>
<polygon fill="none" stroke="#000000" points="262.5,-84 262.5,-140 425.5,-140 425.5,-84 262.5,-84"/>
<text text-anchor="start" x="286.0725" y="-121" font-family="Helvetica,sans-Serif" font-size="10.00" fill="#000000">+getCategoria():Categoria</text>
<text text-anchor="start" x="272.033" y="-109" font-family="Helvetica,sans-Serif" font-size="10.00" fill="#000000">addContacto(Contacto contacto)</text>
<text text-anchor="start" x="284.956" y="-97" font-family="Helvetica,sans-Serif" font-size="10.00" fill="#000000">+getContactos():Contacto*</text>
</g>
<!-- A0&#45;&gt;A1 -->
<g id="edge2" class="edge">
<title>A0&#45;&gt;A1</title>
<path fill="none" stroke="#000000" d="M224.4001,-166.0648C233.626,-164.3556 242.8548,-162.6458 251.8636,-160.9768"/>
<polygon fill="none" stroke="#000000" points="224.0454,-166.1304 218.8745,-171.1565 212.2462,-168.3165 217.4172,-163.2904 224.0454,-166.1304"/>
<polygon fill="#000000" stroke="#000000" points="261.9296,-159.112 252.9166,-165.3584 257.0132,-160.0229 252.0969,-160.9337 252.0969,-160.9337 252.0969,-160.9337 257.0132,-160.0229 251.2771,-156.509 261.9296,-159.112 261.9296,-159.112"/>
<text text-anchor="middle" x="245.6464" y="-167.7249" font-family="Helvetica,sans-Serif" font-size="10.00" fill="#000000">*</text>
<text text-anchor="middle" x="228.5294" y="-153.7036" font-family="Helvetica,sans-Serif" font-size="10.00" fill="#000000">1</text>
</g>
<!-- A2 -->
<g id="node3" class="node">
<title>A2</title>
<polygon fill="none" stroke="#000000" points="475.5,-290 475.5,-334 590.5,-334 590.5,-290 475.5,-290"/>
<text text-anchor="start" x="502.7105" y="-315" font-family="Helvetica,sans-Serif" font-size="10.00" fill="#000000">&lt;&lt;Registro&gt;&gt;</text>
<text text-anchor="start" x="512.9935" y="-303" font-family="Helvetica,sans-Serif" font-size="10.00" fill="#000000">Contacto</text>
<polygon fill="none" stroke="#000000" points="475.5,-210 475.5,-290 590.5,-290 590.5,-210 475.5,-210"/>
<text text-anchor="start" x="500.496" y="-271" font-family="Helvetica,sans-Serif" font-size="10.00" fill="#000000">&#45;nombre:Texto</text>
<text text-anchor="start" x="508.8295" y="-259" font-family="Helvetica,sans-Serif" font-size="10.00" fill="#000000">alias:Texto</text>
<text text-anchor="start" x="499.106" y="-247" font-family="Helvetica,sans-Serif" font-size="10.00" fill="#000000">direccion:Texto</text>
<text text-anchor="start" x="501.3215" y="-235" font-family="Helvetica,sans-Serif" font-size="10.00" fill="#000000">telefono:Texto</text>
<text text-anchor="start" x="507.165" y="-223" font-family="Helvetica,sans-Serif" font-size="10.00" fill="#000000">email:Texto</text>
<polygon fill="none" stroke="#000000" points="475.5,-130 475.5,-210 590.5,-210 590.5,-130 475.5,-130"/>
<text text-anchor="start" x="488.1335" y="-191" font-family="Helvetica,sans-Serif" font-size="10.00" fill="#000000">+getNombre():Texto</text>
<text text-anchor="start" x="495.0775" y="-179" font-family="Helvetica,sans-Serif" font-size="10.00" fill="#000000">+getAlias():Texto</text>
<text text-anchor="start" x="485.079" y="-167" font-family="Helvetica,sans-Serif" font-size="10.00" fill="#000000">+getDireccion():Texto</text>
<text text-anchor="start" x="486.4595" y="-155" font-family="Helvetica,sans-Serif" font-size="10.00" fill="#000000">+getTelefono():Texto</text>
<text text-anchor="start" x="493.413" y="-143" font-family="Helvetica,sans-Serif" font-size="10.00" fill="#000000">+getEMail():Texto</text>
</g>
<!-- A0&#45;&gt;A2 -->
<g id="edge1" class="edge">
<title>A0&#45;&gt;A2</title>
<path fill="none" stroke="#000000" d="M224.4886,-208.1149C237.1304,-209.9243 249.8166,-211.5987 262,-213 330.7621,-220.9089 409.7629,-226.0003 464.5617,-228.9018"/>
<polygon fill="none" stroke="#000000" points="224.2729,-208.0834 217.7563,-211.1711 212.3997,-206.3433 218.9163,-203.2556 224.2729,-208.0834"/>
<polygon fill="#000000" stroke="#000000" points="474.8461,-229.4357 464.6263,-233.4112 469.8529,-229.1765 464.8596,-228.9172 464.8596,-228.9172 464.8596,-228.9172 469.8529,-229.1765 465.0929,-224.4233 474.8461,-229.4357 474.8461,-229.4357"/>
<text text-anchor="middle" x="456.3062" y="-233.937" font-family="Helvetica,sans-Serif" font-size="10.00" fill="#000000">*</text>
<text text-anchor="middle" x="231.5599" y="-197.6085" font-family="Helvetica,sans-Serif" font-size="10.00" fill="#000000">1</text>
</g>
<!-- A1&#45;&gt;A2 -->
<g id="edge4" class="edge">
<title>A1&#45;&gt;A2</title>
<path fill="none" stroke="#000000" d="M425.0243,-181.9584C441.8088,-189.7734 459.15,-197.8476 474.8753,-205.1695"/>
<text text-anchor="middle" x="454.8753" y="-202.181" font-family="Helvetica,sans-Serif" font-size="10.00" fill="#000000">*</text>
<text text-anchor="middle" x="445.0243" y="-178.9469" font-family="Helvetica,sans-Serif" font-size="10.00" fill="#000000">*</text>
</g>
<!-- A3 -->
<g id="node4" class="node">
<title>A3</title>
<polygon fill="none" stroke="#000000" points="498.5,-68 498.5,-112 567.5,-112 567.5,-68 498.5,-68"/>
<text text-anchor="start" x="508.264" y="-93" font-family="Helvetica,sans-Serif" font-size="10.00" fill="#000000">&lt;&lt;Enum&gt;&gt;</text>
<text text-anchor="start" x="511.3295" y="-81" font-family="Helvetica,sans-Serif" font-size="10.00" fill="#000000">Categoria</text>
<polygon fill="none" stroke="#000000" points="498.5,0 498.5,-68 567.5,-68 567.5,0 498.5,0"/>
<text text-anchor="start" x="512.7235" y="-49" font-family="Helvetica,sans-Serif" font-size="10.00" fill="#000000">OFICINA</text>
<text text-anchor="start" x="515.498" y="-37" font-family="Helvetica,sans-Serif" font-size="10.00" fill="#000000">FIESTA</text>
<text text-anchor="start" x="512.998" y="-25" font-family="Helvetica,sans-Serif" font-size="10.00" fill="#000000">AMIGOS</text>
<text text-anchor="start" x="513.5535" y="-13" font-family="Helvetica,sans-Serif" font-size="10.00" fill="#000000">FAMILIA</text>
</g>
<!-- A1&#45;&gt;A3 -->
<g id="edge3" class="edge">
<title>A1&#45;&gt;A3</title>
<path fill="none" stroke="#000000" d="M425.0243,-106.0416C446.9041,-95.8542 469.7298,-85.2263 488.6892,-76.3987"/>
<polygon fill="#000000" stroke="#000000" points="497.9444,-72.0894 490.7784,-80.3899 493.4117,-74.1999 488.8789,-76.3104 488.8789,-76.3104 488.8789,-76.3104 493.4117,-74.1999 486.9795,-72.2309 497.9444,-72.0894 497.9444,-72.0894"/>
<text text-anchor="middle" x="485.0799" y="-84.4029" font-family="Helvetica,sans-Serif" font-size="10.00" fill="#000000">1</text>
<text text-anchor="middle" x="437.8889" y="-87.7281" font-family="Helvetica,sans-Serif" font-size="10.00" fill="#000000">*</text>
</g>
</g>
</svg>
