<?xml version="1.0" encoding="UTF-8" standalone="no"?>
<!DOCTYPE svg PUBLIC "-//W3C//DTD SVG 1.1//EN"
 "http://www.w3.org/Graphics/SVG/1.1/DTD/svg11.dtd">
<!-- Generated by graphviz version 2.40.1 (20161225.0304)
 -->
<!-- Title: G Pages: 1 -->
<svg width="286pt" height="132pt"
 viewBox="0.00 0.00 286.00 132.00" xmlns="http://www.w3.org/2000/svg" xmlns:xlink="http://www.w3.org/1999/xlink">
<g id="graph0" class="graph" transform="scale(1 1) rotate(0) translate(4 128)">
<title>G</title>
<polygon fill="#ffffff" stroke="transparent" points="-4,4 -4,-128 282,-128 282,4 -4,4"/>
<!-- A0 -->
<g id="node1" class="node">
<title>A0</title>
<polygon fill="none" stroke="#000000" points=".5,-62 .5,-94 85.5,-94 85.5,-62 .5,-62"/>
<text text-anchor="start" x="29.667" y="-75" font-family="Helvetica,sans-Serif" font-size="10.00" fill="#000000">Curso</text>
<polygon fill="none" stroke="#000000" points=".5,-30 .5,-62 85.5,-62 85.5,-30 .5,-30"/>
<text text-anchor="start" x="10.496" y="-43" font-family="Helvetica,sans-Serif" font-size="10.00" fill="#000000">&#45;nombre:Texto</text>
</g>
<!-- A1 -->
<g id="node2" class="node">
<title>A1</title>
<polygon fill="none" stroke="#000000" points="135.5,-92 135.5,-124 278.5,-124 278.5,-92 135.5,-92"/>
<text text-anchor="start" x="183.3795" y="-105" font-family="Helvetica,sans-Serif" font-size="10.00" fill="#000000">Estudiante</text>
<polygon fill="none" stroke="#000000" points="135.5,0 135.5,-92 278.5,-92 278.5,0 135.5,0"/>
<text text-anchor="start" x="171.996" y="-73" font-family="Helvetica,sans-Serif" font-size="10.00" fill="#000000">&#45;nombres:Texto</text>
<text text-anchor="start" x="171.717" y="-61" font-family="Helvetica,sans-Serif" font-size="10.00" fill="#000000">&#45;apellidos:Texto</text>
<text text-anchor="start" x="145.322" y="-49" font-family="Helvetica,sans-Serif" font-size="10.00" fill="#000000">&#45;numeroIdentificacion:Texto</text>
<text text-anchor="start" x="177.2755" y="-37" font-family="Helvetica,sans-Serif" font-size="10.00" fill="#000000">&#45;correo:Texto</text>
<text text-anchor="start" x="173.657" y="-25" font-family="Helvetica,sans-Serif" font-size="10.00" fill="#000000">&#45;telefono:Texto</text>
<text text-anchor="start" x="178.101" y="-13" font-family="Helvetica,sans-Serif" font-size="10.00" fill="#000000">&#45;edad:Entero</text>
</g>
<!-- A0&#45;&gt;A1 -->
<g id="edge1" class="edge">
<title>A0&#45;&gt;A1</title>
<path fill="none" stroke="#000000" d="M97.3254,-62C106.1577,-62 115.4643,-62 124.7664,-62"/>
<polygon fill="none" stroke="#000000" points="97.1609,-62.0001 91.1609,-66 85.1609,-62 91.161,-58 97.1609,-62.0001"/>
<polygon fill="#000000" stroke="#000000" points="134.8356,-62 124.8357,-66.5001 129.8356,-62 124.8356,-62.0001 124.8356,-62.0001 124.8356,-62.0001 129.8356,-62 124.8356,-57.5001 134.8356,-62 134.8356,-62"/>
<text text-anchor="middle" x="116.7095" y="-67.4524" font-family="Helvetica,sans-Serif" font-size="10.00" fill="#000000">*</text>
<text text-anchor="middle" x="103.2871" y="-50.5476" font-family="Helvetica,sans-Serif" font-size="10.00" fill="#000000">1</text>
</g>
</g>
</svg>
