<?xml version="1.0" encoding="UTF-8" standalone="no"?>
<!DOCTYPE svg PUBLIC "-//W3C//DTD SVG 1.1//EN"
 "http://www.w3.org/Graphics/SVG/1.1/DTD/svg11.dtd">
<!-- Generated by graphviz version 2.40.1 (20161225.0304)
 -->
<!-- Title: G Pages: 1 -->
<svg width="873pt" height="236pt"
 viewBox="0.00 0.00 873.00 236.00" xmlns="http://www.w3.org/2000/svg" xmlns:xlink="http://www.w3.org/1999/xlink">
<g id="graph0" class="graph" transform="scale(1 1) rotate(0) translate(4 232)">
<title>G</title>
<polygon fill="#ffffff" stroke="transparent" points="-4,4 -4,-232 869,-232 869,4 -4,4"/>
<!-- A0 -->
<g id="node1" class="node">
<title>A0</title>
<polygon fill="none" stroke="#000000" points=".5,-172 .5,-204 283.5,-204 283.5,-172 .5,-172"/>
<text text-anchor="start" x="128.667" y="-185" font-family="Helvetica,sans-Serif" font-size="10.00" fill="#000000">Curso</text>
<polygon fill="none" stroke="#000000" points=".5,-140 .5,-172 283.5,-172 283.5,-140 .5,-140"/>
<text text-anchor="start" x="109.496" y="-153" font-family="Helvetica,sans-Serif" font-size="10.00" fill="#000000">&#45;nombre:Texto</text>
<polygon fill="none" stroke="#000000" points=".5,-24 .5,-140 283.5,-140 283.5,-24 .5,-24"/>
<text text-anchor="start" x="80.186" y="-121" font-family="Helvetica,sans-Serif" font-size="10.00" fill="#000000">+constructor(nombre:Texto)</text>
<text text-anchor="start" x="46.274" y="-109" font-family="Helvetica,sans-Serif" font-size="10.00" fill="#000000">+agregarEstudiante(Estudiante:Estudiante)</text>
<text text-anchor="start" x="10.156" y="-97" font-family="Helvetica,sans-Serif" font-size="10.00" fill="#000000">+obtenerEstudiante(numeroIdentificacion:Texto):Estudiante</text>
<text text-anchor="start" x="75.728" y="-85" font-family="Helvetica,sans-Serif" font-size="10.00" fill="#000000">+getEstudiantes():Estudiante*</text>
<text text-anchor="start" x="53.778" y="-73" font-family="Helvetica,sans-Serif" font-size="10.00" fill="#000000">+obtenerListadoAlfabetico():Estudiante*</text>
<text text-anchor="start" x="42.9385" y="-61" font-family="Helvetica,sans-Serif" font-size="10.00" fill="#000000">+obtenerListadoEdadDescente():Estudiante*</text>
<text text-anchor="start" x="44.6085" y="-49" font-family="Helvetica,sans-Serif" font-size="10.00" fill="#000000">+obtenerListadoMenoresEdad():Estudiante*</text>
<text text-anchor="start" x="46.7185" y="-37" font-family="Helvetica,sans-Serif" font-size="10.00" fill="#000000">&#45;valiarNumeroIdentificacionExiste():Lógico</text>
</g>
<!-- A1 -->
<g id="node2" class="node">
<title>A1</title>
<polygon fill="none" stroke="#000000" points="333,-196 333,-228 865,-228 865,-196 333,-196"/>
<text text-anchor="start" x="575.3795" y="-209" font-family="Helvetica,sans-Serif" font-size="10.00" fill="#000000">Estudiante</text>
<polygon fill="none" stroke="#000000" points="333,-104 333,-196 865,-196 865,-104 333,-104"/>
<text text-anchor="start" x="563.996" y="-177" font-family="Helvetica,sans-Serif" font-size="10.00" fill="#000000">&#45;nombres:Texto</text>
<text text-anchor="start" x="563.717" y="-165" font-family="Helvetica,sans-Serif" font-size="10.00" fill="#000000">&#45;apellidos:Texto</text>
<text text-anchor="start" x="537.322" y="-153" font-family="Helvetica,sans-Serif" font-size="10.00" fill="#000000">&#45;numeroIdentificacion:Texto</text>
<text text-anchor="start" x="569.2755" y="-141" font-family="Helvetica,sans-Serif" font-size="10.00" fill="#000000">&#45;correo:Texto</text>
<text text-anchor="start" x="565.657" y="-129" font-family="Helvetica,sans-Serif" font-size="10.00" fill="#000000">&#45;telefono:Texto</text>
<text text-anchor="start" x="570.101" y="-117" font-family="Helvetica,sans-Serif" font-size="10.00" fill="#000000">&#45;edad:Entero</text>
<polygon fill="none" stroke="#000000" points="333,0 333,-104 865,-104 865,0 333,0"/>
<text text-anchor="start" x="342.965" y="-85" font-family="Helvetica,sans-Serif" font-size="10.00" fill="#000000">+constructor(nombres:Texto,apellidos:Texto,numeroIdentificacion:Texto, correo:Texto, telefono:Texto, edad:Entero)</text>
<text text-anchor="start" x="553.023" y="-73" font-family="Helvetica,sans-Serif" font-size="10.00" fill="#000000">+geNombres():Texto</text>
<text text-anchor="start" x="551.6295" y="-61" font-family="Helvetica,sans-Serif" font-size="10.00" fill="#000000">+getApellidos():Texto</text>
<text text-anchor="start" x="524.9595" y="-49" font-family="Helvetica,sans-Serif" font-size="10.00" fill="#000000">+getNumeroIdentificacion():Texto</text>
<text text-anchor="start" x="556.6335" y="-37" font-family="Helvetica,sans-Serif" font-size="10.00" fill="#000000">+getCorreo():Texto</text>
<text text-anchor="start" x="552.4595" y="-25" font-family="Helvetica,sans-Serif" font-size="10.00" fill="#000000">+getTelefono():Texto</text>
<text text-anchor="start" x="556.624" y="-13" font-family="Helvetica,sans-Serif" font-size="10.00" fill="#000000">+getEdad(): Entero</text>
</g>
<!-- A0&#45;&gt;A1 -->
<g id="edge1" class="edge">
<title>A0&#45;&gt;A1</title>
<path fill="none" stroke="#000000" d="M295.2483,-114C304.2362,-114 313.3979,-114 322.6687,-114"/>
<polygon fill="none" stroke="#000000" points="295.1227,-114.0001 289.1227,-118 283.1227,-114 289.1228,-110 295.1227,-114.0001"/>
<polygon fill="#000000" stroke="#000000" points="332.7682,-114 322.7682,-118.5001 327.7682,-114 322.7682,-114.0001 322.7682,-114.0001 322.7682,-114.0001 327.7682,-114 322.7681,-109.5001 332.7682,-114 332.7682,-114"/>
<text text-anchor="middle" x="314.642" y="-119.4524" font-family="Helvetica,sans-Serif" font-size="10.00" fill="#000000">*</text>
<text text-anchor="middle" x="301.2489" y="-102.5476" font-family="Helvetica,sans-Serif" font-size="10.00" fill="#000000">1</text>
</g>
</g>
</svg>
