<?xml version="1.0" encoding="UTF-8" standalone="no"?>
<!DOCTYPE svg PUBLIC "-//W3C//DTD SVG 1.1//EN"
 "http://www.w3.org/Graphics/SVG/1.1/DTD/svg11.dtd">
<!-- Generated by graphviz version 2.40.1 (20161225.0304)
 -->
<!-- Title: G Pages: 1 -->
<svg width="381pt" height="262pt"
 viewBox="0.00 0.00 381.00 262.00" xmlns="http://www.w3.org/2000/svg" xmlns:xlink="http://www.w3.org/1999/xlink">
<g id="graph0" class="graph" transform="scale(1 1) rotate(0) translate(4 258)">
<title>G</title>
<polygon fill="#ffffff" stroke="transparent" points="-4,4 -4,-258 377,-258 377,4 -4,4"/>
<!-- A0 -->
<g id="node1" class="node">
<title>A0</title>
<polygon fill="none" stroke="#000000" points=".5,-168 .5,-200 101.5,-200 101.5,-168 .5,-168"/>
<text text-anchor="start" x="33.768" y="-181" font-family="Helvetica,sans-Serif" font-size="10.00" fill="#000000">Agenda</text>
<polygon fill="none" stroke="#000000" points=".5,-124 .5,-168 101.5,-168 101.5,-124 .5,-124"/>
<text text-anchor="start" x="18.496" y="-149" font-family="Helvetica,sans-Serif" font-size="10.00" fill="#000000">&#45;nombre:Texto</text>
<text text-anchor="start" x="10.162" y="-137" font-family="Helvetica,sans-Serif" font-size="10.00" fill="#000000">&#45;descripcion:Texto</text>
</g>
<!-- A1 -->
<g id="node2" class="node">
<title>A1</title>
<polygon fill="none" stroke="#000000" points="286.5,-210 286.5,-254 373.5,-254 373.5,-210 286.5,-210"/>
<text text-anchor="start" x="299.7105" y="-235" font-family="Helvetica,sans-Serif" font-size="10.00" fill="#000000">&lt;&lt;Registro&gt;&gt;</text>
<text text-anchor="start" x="309.9935" y="-223" font-family="Helvetica,sans-Serif" font-size="10.00" fill="#000000">Contacto</text>
<polygon fill="none" stroke="#000000" points="286.5,-130 286.5,-210 373.5,-210 373.5,-130 286.5,-130"/>
<text text-anchor="start" x="297.496" y="-191" font-family="Helvetica,sans-Serif" font-size="10.00" fill="#000000">&#45;nombre:Texto</text>
<text text-anchor="start" x="305.8295" y="-179" font-family="Helvetica,sans-Serif" font-size="10.00" fill="#000000">alias:Texto</text>
<text text-anchor="start" x="296.106" y="-167" font-family="Helvetica,sans-Serif" font-size="10.00" fill="#000000">direccion:Texto</text>
<text text-anchor="start" x="298.3215" y="-155" font-family="Helvetica,sans-Serif" font-size="10.00" fill="#000000">telefono:Texto</text>
<text text-anchor="start" x="304.165" y="-143" font-family="Helvetica,sans-Serif" font-size="10.00" fill="#000000">email:Texto</text>
</g>
<!-- A0&#45;&gt;A1 -->
<g id="edge1" class="edge">
<title>A0&#45;&gt;A1</title>
<path fill="none" stroke="#000000" d="M113.3554,-168.9088C125.8283,-170.2716 138.8281,-171.6861 151,-173 192.8783,-177.5207 240.292,-182.564 275.7229,-186.318"/>
<polygon fill="none" stroke="#000000" points="113.0371,-168.874 106.6376,-172.1978 101.1082,-167.5689 107.5077,-164.2452 113.0371,-168.874"/>
<polygon fill="#000000" stroke="#000000" points="285.8482,-187.3902 275.4299,-190.812 280.876,-186.8636 275.9038,-186.337 275.9038,-186.337 275.9038,-186.337 280.876,-186.8636 276.3777,-181.862 285.8482,-187.3902 285.8482,-187.3902"/>
<text text-anchor="middle" x="266.9327" y="-190.8867" font-family="Helvetica,sans-Serif" font-size="10.00" fill="#000000">*</text>
<text text-anchor="middle" x="120.0461" y="-158.138" font-family="Helvetica,sans-Serif" font-size="10.00" fill="#000000">1</text>
</g>
<!-- A2 -->
<g id="node3" class="node">
<title>A2</title>
<polygon fill="none" stroke="#000000" points="151.5,-132 151.5,-164 236.5,-164 236.5,-132 151.5,-132"/>
<text text-anchor="start" x="180.1075" y="-145" font-family="Helvetica,sans-Serif" font-size="10.00" fill="#000000">Grupo</text>
<polygon fill="none" stroke="#000000" points="151.5,-100 151.5,-132 236.5,-132 236.5,-100 151.5,-100"/>
<text text-anchor="start" x="161.496" y="-113" font-family="Helvetica,sans-Serif" font-size="10.00" fill="#000000">&#45;nombre:Texto</text>
</g>
<!-- A0&#45;&gt;A2 -->
<g id="edge2" class="edge">
<title>A0&#45;&gt;A2</title>
<path fill="none" stroke="#000000" d="M113.3211,-148.8207C122.5428,-146.8861 131.9599,-144.9105 140.9466,-143.0252"/>
<polygon fill="none" stroke="#000000" points="113.0634,-148.8747 108.0126,-154.0215 101.3191,-151.3387 106.37,-146.1919 113.0634,-148.8747"/>
<polygon fill="#000000" stroke="#000000" points="150.8767,-140.942 142.0137,-147.3994 145.9832,-141.9686 141.0897,-142.9952 141.0897,-142.9952 141.0897,-142.9952 145.9832,-141.9686 140.1658,-138.5911 150.8767,-140.942 150.8767,-140.942"/>
<text text-anchor="middle" x="134.8721" y="-149.9359" font-family="Helvetica,sans-Serif" font-size="10.00" fill="#000000">*</text>
<text text-anchor="middle" x="117.3236" y="-136.3447" font-family="Helvetica,sans-Serif" font-size="10.00" fill="#000000">1</text>
</g>
<!-- A2&#45;&gt;A1 -->
<g id="edge4" class="edge">
<title>A2&#45;&gt;A1</title>
<path fill="none" stroke="#000000" d="M236.1581,-150.8198C251.8937,-157.7619 269.7421,-165.6362 285.5868,-172.6265"/>
<text text-anchor="middle" x="265.5911" y="-170.0433" font-family="Helvetica,sans-Serif" font-size="10.00" fill="#000000">*</text>
<text text-anchor="middle" x="256.1538" y="-147.403" font-family="Helvetica,sans-Serif" font-size="10.00" fill="#000000">*</text>
</g>
<!-- A3 -->
<g id="node4" class="node">
<title>A3</title>
<polygon fill="none" stroke="#000000" points="295.5,-68 295.5,-112 364.5,-112 364.5,-68 295.5,-68"/>
<text text-anchor="start" x="305.264" y="-93" font-family="Helvetica,sans-Serif" font-size="10.00" fill="#000000">&lt;&lt;Enum&gt;&gt;</text>
<text text-anchor="start" x="308.3295" y="-81" font-family="Helvetica,sans-Serif" font-size="10.00" fill="#000000">Categoria</text>
<polygon fill="none" stroke="#000000" points="295.5,0 295.5,-68 364.5,-68 364.5,0 295.5,0"/>
<text text-anchor="start" x="309.7235" y="-49" font-family="Helvetica,sans-Serif" font-size="10.00" fill="#000000">OFICINA</text>
<text text-anchor="start" x="312.498" y="-37" font-family="Helvetica,sans-Serif" font-size="10.00" fill="#000000">FIESTA</text>
<text text-anchor="start" x="309.998" y="-25" font-family="Helvetica,sans-Serif" font-size="10.00" fill="#000000">AMIGOS</text>
<text text-anchor="start" x="310.5535" y="-13" font-family="Helvetica,sans-Serif" font-size="10.00" fill="#000000">FAMILIA</text>
</g>
<!-- A2&#45;&gt;A3 -->
<g id="edge3" class="edge">
<title>A2&#45;&gt;A3</title>
<path fill="none" stroke="#000000" d="M236.1581,-108.1616C251.9169,-99.3553 269.7945,-89.3648 285.6566,-80.5007"/>
<polygon fill="#000000" stroke="#000000" points="294.7318,-75.4293 288.1976,-84.2358 290.3671,-77.8684 286.0023,-80.3076 286.0023,-80.3076 286.0023,-80.3076 290.3671,-77.8684 283.8071,-76.3793 294.7318,-75.4293 294.7318,-75.4293"/>
<text text-anchor="middle" x="283.0319" y="-88.6501" font-family="Helvetica,sans-Serif" font-size="10.00" fill="#000000">1</text>
<text text-anchor="middle" x="247.858" y="-88.9409" font-family="Helvetica,sans-Serif" font-size="10.00" fill="#000000">*</text>
</g>
</g>
</svg>
